<svg width="24" height="24" viewBox="0 0 24 24" fill="none" xmlns="http://www.w3.org/2000/svg">
<mask id="path-1-inside-1_139_3150" fill="white">
<path fill-rule="evenodd" clip-rule="evenodd" d="M15 1V6.6C15 7.3732 15.6268 8 16.4 8H22"/>
</mask>
<path d="M16.5 1C16.5 0.171573 15.8284 -0.5 15 -0.5C14.1716 -0.5 13.5 0.171573 13.5 1H16.5ZM22 9.5C22.8284 9.5 23.5 8.82843 23.5 8C23.5 7.17157 22.8284 6.5 22 6.5V9.5ZM13.5 1V6.6H16.5V1H13.5ZM13.5 6.6C13.5 8.20163 14.7984 9.5 16.4 9.5V6.5C16.4552 6.5 16.5 6.54477 16.5 6.6H13.5ZM16.4 9.5H22V6.5H16.4V9.5Z" fill="#27262A" mask="url(#path-1-inside-1_139_3150)"/>
<path d="M19.6429 23.25H5.35714C4.14382 23.25 3.25 22.344 3.25 21.3333V2.66667C3.25 1.65602 4.14382 0.75 5.35714 0.75H15.0615L21.75 6.99258V21.3333C21.75 22.344 20.8562 23.25 19.6429 23.25Z" stroke="#27262A" stroke-width="1.5" stroke-linecap="round" stroke-linejoin="round"/>
<path d="M7 9H9" stroke="#27262A" stroke-width="1.5" stroke-linecap="round" stroke-linejoin="round"/>
<path d="M7 13H15" stroke="#27262A" stroke-width="1.5" stroke-linecap="round" stroke-linejoin="round"/>
<path d="M7 17H15" stroke="#27262A" stroke-width="1.5" stroke-linecap="round" stroke-linejoin="round"/>
</svg>
