<svg width="24" height="24" viewBox="0 0 24 24" fill="none" xmlns="http://www.w3.org/2000/svg">
<mask id="path-1-inside-1_0_1" fill="white">
<path fill-rule="evenodd" clip-rule="evenodd" d="M12 24L7.5 19.2H4.5C2.01472 19.2 0 17.051 0 14.4V4.8C0 2.14903 2.01472 0 4.5 0H19.5C21.9853 0 24 2.14903 24 4.8V14.4C24 17.051 21.9853 19.2 19.5 19.2H16.5L12 24"/>
</mask>
<path d="M10.9057 25.0259C11.4723 25.6303 12.4215 25.6609 13.0259 25.0943C13.6303 24.5277 13.6609 23.5785 13.0943 22.9741L10.9057 25.0259ZM7.5 19.2L8.59431 18.1741C8.31073 17.8716 7.91461 17.7 7.5 17.7V19.2ZM16.5 19.2V17.7C16.0854 17.7 15.6893 17.8716 15.4057 18.1741L16.5 19.2ZM10.9057 22.9741C10.3391 23.5785 10.3697 24.5277 10.9741 25.0943C11.5785 25.6609 12.5277 25.6303 13.0943 25.0259L10.9057 22.9741ZM13.0943 22.9741L8.59431 18.1741L6.40569 20.2259L10.9057 25.0259L13.0943 22.9741ZM7.5 17.7H4.5V20.7H7.5V17.7ZM4.5 17.7C2.93287 17.7 1.5 16.3152 1.5 14.4H-1.5C-1.5 17.7867 1.09657 20.7 4.5 20.7V17.7ZM1.5 14.4V4.8H-1.5V14.4H1.5ZM1.5 4.8C1.5 2.8848 2.93287 1.5 4.5 1.5V-1.5C1.09657 -1.5 -1.5 1.41327 -1.5 4.8H1.5ZM4.5 1.5H19.5V-1.5H4.5V1.5ZM19.5 1.5C21.0671 1.5 22.5 2.8848 22.5 4.8H25.5C25.5 1.41327 22.9034 -1.5 19.5 -1.5V1.5ZM22.5 4.8V14.4H25.5V4.8H22.5ZM22.5 14.4C22.5 16.3152 21.0671 17.7 19.5 17.7V20.7C22.9034 20.7 25.5 17.7867 25.5 14.4H22.5ZM19.5 17.7H16.5V20.7H19.5V17.7ZM15.4057 18.1741L10.9057 22.9741L13.0943 25.0259L17.5943 20.2259L15.4057 18.1741Z" fill="#27262A" mask="url(#path-1-inside-1_0_1)"/>
<path d="M10.9057 25.0259C11.4723 25.6303 12.4215 25.6609 13.0259 25.0943C13.6303 24.5277 13.6609 23.5785 13.0943 22.9741L10.9057 25.0259ZM7.5 19.2L8.59431 18.1741C8.31073 17.8716 7.91461 17.7 7.5 17.7V19.2ZM16.5 19.2V17.7C16.0854 17.7 15.6893 17.8716 15.4057 18.1741L16.5 19.2ZM10.9057 22.9741C10.3391 23.5785 10.3697 24.5277 10.9741 25.0943C11.5785 25.6609 12.5277 25.6303 13.0943 25.0259L10.9057 22.9741ZM13.0943 22.9741L8.59431 18.1741L6.40569 20.2259L10.9057 25.0259L13.0943 22.9741ZM7.5 17.7H4.5V20.7H7.5V17.7ZM4.5 17.7C2.93287 17.7 1.5 16.3152 1.5 14.4H-1.5C-1.5 17.7867 1.09657 20.7 4.5 20.7V17.7ZM1.5 14.4V4.8H-1.5V14.4H1.5ZM1.5 4.8C1.5 2.8848 2.93287 1.5 4.5 1.5V-1.5C1.09657 -1.5 -1.5 1.41327 -1.5 4.8H1.5ZM4.5 1.5H19.5V-1.5H4.5V1.5ZM19.5 1.5C21.0671 1.5 22.5 2.8848 22.5 4.8H25.5C25.5 1.41327 22.9034 -1.5 19.5 -1.5V1.5ZM22.5 4.8V14.4H25.5V4.8H22.5ZM22.5 14.4C22.5 16.3152 21.0671 17.7 19.5 17.7V20.7C22.9034 20.7 25.5 17.7867 25.5 14.4H22.5ZM19.5 17.7H16.5V20.7H19.5V17.7ZM15.4057 18.1741L10.9057 22.9741L13.0943 25.0259L17.5943 20.2259L15.4057 18.1741Z" fill="#27262A" mask="url(#path-1-inside-1_0_1)"/>
<path d="M5 7.5H19" stroke="#27262A" stroke-width="1.5" stroke-linecap="round" stroke-linejoin="round"/>
<path d="M5 7.5H19" stroke="#27262A" stroke-width="1.5" stroke-linecap="round" stroke-linejoin="round"/>
<path d="M5 11.5H17" stroke="#27262A" stroke-width="1.5" stroke-linecap="round" stroke-linejoin="round"/>
<path d="M5 11.5H17" stroke="#27262A" stroke-width="1.5" stroke-linecap="round" stroke-linejoin="round"/>
</svg>
