<svg width="26" height="26" viewBox="0 0 26 26" fill="none" xmlns="http://www.w3.org/2000/svg">
<rect x="1" y="1" width="24" height="24" rx="12" fill="white"/>
<path fill-rule="evenodd" clip-rule="evenodd" d="M23.455 8.05826L15.4555 1.842C14.0113 0.719496 11.9887 0.719496 10.5445 1.842L2.5435 8.05826C1.56911 8.81531 0.999418 9.97963 1 11.2128V22.0029C1 23.6582 2.34315 25.0001 4 25.0001H22C23.6569 25.0001 25 23.6582 25 22.0029V11.2128C25 9.97949 24.43 8.81506 23.455 8.05826Z" fill="white"/>
<path d="M23.455 8.05826L15.4555 1.842C14.0113 0.719496 11.9887 0.719496 10.5445 1.842L2.5435 8.05826C1.56911 8.81531 0.999418 9.97963 1 11.2128V22.0029C1 23.6582 2.34315 25.0001 4 25.0001H22C23.6569 25.0001 25 23.6582 25 22.0029V11.2128C25 9.97949 24.43 8.81506 23.455 8.05826" stroke="#27262A" stroke-width="1.5" stroke-linecap="round" stroke-linejoin="round"/>
<path d="M17 15.9999C14.79 17.3329 11.208 17.3329 9 15.9999" stroke="#27262A" stroke-width="1.5" stroke-linecap="round" stroke-linejoin="round"/>
</svg>
