<svg width="26" height="26" viewBox="0 0 26 26" fill="none" xmlns="http://www.w3.org/2000/svg">
<path fill-rule="evenodd" clip-rule="evenodd" d="M10.7667 2.756C11.3347 0.414667 14.6653 0.414667 15.2333 2.756C15.4062 3.46941 15.9094 4.05737 16.5875 4.33833C17.2657 4.61929 18.0373 4.55947 18.664 4.17733C20.7213 2.924 23.0773 5.27867 21.824 7.33733C21.4424 7.96381 21.3827 8.73478 21.6634 9.41251C21.944 10.0902 22.5312 10.5933 23.244 10.7667C25.5853 11.3347 25.5853 14.6653 23.244 15.2333C22.5306 15.4062 21.9426 15.9094 21.6617 16.5875C21.3807 17.2657 21.4405 18.0373 21.8227 18.664C23.076 20.7213 20.7213 23.0773 18.6627 21.824C18.0362 21.4424 17.2652 21.3827 16.5875 21.6634C15.9098 21.944 15.4067 22.5312 15.2333 23.244C14.6653 25.5853 11.3347 25.5853 10.7667 23.244C10.5938 22.5306 10.0906 21.9426 9.41247 21.6617C8.73431 21.3807 7.96275 21.4405 7.336 21.8227C5.27867 23.076 2.92267 20.7213 4.176 18.6627C4.55758 18.0362 4.61726 17.2652 4.33663 16.5875C4.056 15.9098 3.46876 15.4067 2.756 15.2333C0.414667 14.6653 0.414667 11.3347 2.756 10.7667C3.46941 10.5938 4.05737 10.0906 4.33833 9.41247C4.61929 8.73431 4.55947 7.96275 4.17733 7.336C2.924 5.27867 5.27867 2.92267 7.33733 4.176C8.67067 4.98667 10.3987 4.26933 10.7667 2.756Z" fill="white" stroke="#27262A" stroke-width="1.5" stroke-linecap="round" stroke-linejoin="round"/>
<circle cx="13" cy="13" r="5" fill="white" stroke="#27262A" stroke-width="1.5" stroke-linecap="round" stroke-linejoin="round"/>
</svg>
