<svg width="140" height="27" viewBox="0 0 140 27" fill="none" xmlns="http://www.w3.org/2000/svg">
<path fill-rule="evenodd" clip-rule="evenodd" d="M126.791 6.56473C126.46 6.32835 126 6.56491 126 6.97159V25.0284C126 25.4351 126.46 25.6717 126.791 25.4353L139.43 16.4069C139.71 16.2075 139.71 15.7925 139.43 15.5931L126.791 6.56473Z" fill="#F5F6F8"/>
<path d="M0.864 15.884C0.864 13.796 1.296 11.972 2.16 10.412C3.024 8.852 4.224 7.652 5.76 6.812C7.32 5.972 9.096 5.552 11.088 5.552C13.656 5.552 15.816 6.26 17.568 7.676C19.32 9.068 20.448 11.024 20.952 13.544H13.464C13.032 12.224 12.192 11.564 10.944 11.564C10.056 11.564 9.348 11.936 8.82 12.68C8.316 13.4 8.064 14.468 8.064 15.884C8.064 17.3 8.316 18.38 8.82 19.124C9.348 19.868 10.056 20.24 10.944 20.24C12.216 20.24 13.056 19.58 13.464 18.26H20.952C20.448 20.756 19.32 22.712 17.568 24.128C15.816 25.544 13.656 26.252 11.088 26.252C9.096 26.252 7.32 25.832 5.76 24.992C4.224 24.152 3.024 22.952 2.16 21.392C1.296 19.832 0.864 17.996 0.864 15.884ZM33.2792 26.252C31.2632 26.252 29.4512 25.832 27.8432 24.992C26.2592 24.152 25.0112 22.952 24.0992 21.392C23.1872 19.832 22.7312 17.996 22.7312 15.884C22.7312 13.796 23.1872 11.972 24.0992 10.412C25.0352 8.852 26.2952 7.652 27.8792 6.812C29.4872 5.972 31.2992 5.552 33.3152 5.552C35.3312 5.552 37.1312 5.972 38.7152 6.812C40.3232 7.652 41.5832 8.852 42.4952 10.412C43.4312 11.972 43.8992 13.796 43.8992 15.884C43.8992 17.972 43.4312 19.808 42.4952 21.392C41.5832 22.952 40.3232 24.152 38.7152 24.992C37.1072 25.832 35.2952 26.252 33.2792 26.252ZM33.2792 20.132C34.2632 20.132 35.0792 19.772 35.7272 19.052C36.3992 18.308 36.7352 17.252 36.7352 15.884C36.7352 14.516 36.3992 13.472 35.7272 12.752C35.0792 12.032 34.2752 11.672 33.3152 11.672C32.3552 11.672 31.5512 12.032 30.9032 12.752C30.2552 13.472 29.9312 14.516 29.9312 15.884C29.9312 17.276 30.2432 18.332 30.8672 19.052C31.4912 19.772 32.2952 20.132 33.2792 20.132ZM59.9819 5.624C62.3099 5.624 64.1579 6.404 65.5259 7.964C66.8939 9.5 67.5779 11.588 67.5779 14.228V26H60.5219V15.164C60.5219 14.012 60.2219 13.112 59.6219 12.464C59.0219 11.792 58.2179 11.456 57.2099 11.456C56.1539 11.456 55.3259 11.792 54.7259 12.464C54.1259 13.112 53.8259 14.012 53.8259 15.164V26H46.7699V5.804H53.8259V8.684C54.4499 7.772 55.2899 7.04 56.3459 6.488C57.4019 5.912 58.6139 5.624 59.9819 5.624ZM83.3656 19.988V26H80.3056C75.1456 26 72.5656 23.444 72.5656 18.332V11.672H70.0816V5.804H72.5656V0.907999H79.6576V5.804H83.3296V11.672H79.6576V18.44C79.6576 18.992 79.7776 19.388 80.0176 19.628C80.2816 19.868 80.7136 19.988 81.3136 19.988H83.3656ZM93.6579 9.368C94.4499 8.216 95.4099 7.304 96.5379 6.632C97.6659 5.96 98.8779 5.624 100.174 5.624V13.148H98.1939C96.6579 13.148 95.5179 13.448 94.7739 14.048C94.0299 14.648 93.6579 15.692 93.6579 17.18V26H86.6019V5.804H93.6579V9.368ZM112.1 26.252C110.084 26.252 108.272 25.832 106.664 24.992C105.08 24.152 103.832 22.952 102.92 21.392C102.008 19.832 101.552 17.996 101.552 15.884C101.552 13.796 102.008 11.972 102.92 10.412C103.856 8.852 105.116 7.652 106.7 6.812C108.308 5.972 110.12 5.552 112.136 5.552C114.152 5.552 115.952 5.972 117.536 6.812C119.144 7.652 120.404 8.852 121.316 10.412C122.252 11.972 122.72 13.796 122.72 15.884C122.72 17.972 122.252 19.808 121.316 21.392C120.404 22.952 119.144 24.152 117.536 24.992C115.928 25.832 114.116 26.252 112.1 26.252ZM112.1 20.132C113.084 20.132 113.9 19.772 114.548 19.052C115.22 18.308 115.556 17.252 115.556 15.884C115.556 14.516 115.22 13.472 114.548 12.752C113.9 12.032 113.096 11.672 112.136 11.672C111.176 11.672 110.372 12.032 109.724 12.752C109.076 13.472 108.752 14.516 108.752 15.884C108.752 17.276 109.064 18.332 109.688 19.052C110.312 19.772 111.116 20.132 112.1 20.132Z" fill="#F5F6F8"/>
</svg>
