<svg width="77" height="88" viewBox="0 0 77 88" fill="none" xmlns="http://www.w3.org/2000/svg">
<path d="M58.6582 57.0569L58.477 57.2317C54.8526 60.7277 50.0321 62.6505 44.8855 62.6505C39.8113 62.6505 35.0271 60.7627 31.4027 57.3366L34.411 54.435C37.238 57.0919 40.9349 58.5602 44.8855 58.5602C48.8723 58.5602 52.6417 57.0569 55.4687 54.3301L55.6499 54.1553L58.6582 57.0569Z" fill="white"/>
<path d="M76.8888 74.6417C68.4802 82.7524 57.3533 87.2273 45.5015 87.3322C21.0369 87.507 0.740238 68.4888 0.232822 44.9259C-0.310837 20.6288 20.022 0.666687 45.1029 0.666687C57.0996 0.666687 68.3715 5.17651 76.8526 13.3571L69.4226 20.5239C64.0585 15.3498 56.9184 11.8538 48.981 11.0148C47.6762 10.875 46.4076 10.805 45.0666 10.805C43.7618 10.805 42.4571 10.875 41.1885 11.0148C29.6992 12.2734 19.9133 18.9507 14.6579 28.3549L11.396 26.6768C10.0912 26.0126 8.46021 26.537 7.84406 27.8655C5.52444 32.7948 4.2559 38.2485 4.2559 44.0169C4.2559 49.7853 5.52444 55.239 7.84406 60.1684C8.46021 61.4968 10.0912 62.0212 11.396 61.357L14.6217 59.6789C19.8408 69.1181 29.6629 75.8304 41.1885 77.054C41.7322 78.5922 43.2544 79.7459 45.0666 79.7459C46.8788 79.7459 48.4011 78.6272 48.9447 77.054C48.981 76.984 49.0172 76.8792 49.0172 76.8092C49.0897 76.4946 49.1622 76.145 49.1622 75.7954C49.1622 75.7255 49.1622 75.6206 49.1622 75.5507C49.1622 75.3759 49.1259 75.2361 49.0897 75.0613C49.0535 74.8165 48.981 74.5718 48.8722 74.3271C48.8722 74.3271 48.8722 74.3271 48.8722 74.2921C48.2561 72.8588 46.8063 71.8449 45.0666 71.8449C43.3632 71.8449 41.8772 72.8588 41.261 74.3271C41.261 74.3271 41.261 74.3271 41.261 74.3621C41.2248 74.3621 41.1885 74.3621 41.1523 74.3621C39.5213 74.1523 37.9628 73.8377 36.4043 73.4181C36.1506 73.3482 35.8969 73.2783 35.6432 73.2084C35.3895 73.1385 35.1358 73.0685 34.9183 72.9637C34.8096 72.9287 34.6646 72.8937 34.5559 72.8238C34.3384 72.7539 34.1572 72.684 33.9397 72.6141C33.9035 72.6141 33.9035 72.6141 33.8672 72.5791C33.541 72.4742 33.2148 72.3344 32.8886 72.1945C32.8886 72.1945 32.8886 72.1945 32.8524 72.1945C32.6712 72.1246 32.4537 72.0197 32.2725 71.9498C32.0188 71.8449 31.8013 71.7401 31.5476 71.6352C31.3302 71.5303 31.0764 71.4254 30.859 71.3205C30.4241 71.1108 29.9891 70.901 29.5542 70.6563C29.4092 70.5864 29.228 70.4815 29.083 70.4116C28.8656 70.3067 28.6843 70.2018 28.4669 70.062C27.4158 69.4327 26.401 68.7685 25.4586 68.0343C25.2774 67.8945 25.0962 67.7546 24.915 67.6148C24.7337 67.475 24.5163 67.3002 24.3351 67.1254C24.1538 66.9855 23.9726 66.8107 23.7552 66.6359C23.5739 66.4611 23.3927 66.3213 23.2115 66.1465C23.0303 65.9717 22.8491 65.7969 22.6678 65.6221C22.4866 65.4473 22.3054 65.2725 22.1242 65.0977C21.943 64.9229 21.798 64.7481 21.6168 64.5733C20.9281 63.8391 20.2395 63.0351 19.6233 62.231C19.4421 61.9863 19.2609 61.7416 19.0797 61.4968C18.971 61.357 18.8622 61.2172 18.7897 61.0773C18.6448 60.8676 18.4998 60.6578 18.3548 60.448C18.2098 60.2383 18.1011 60.0635 17.9561 59.8537C17.9561 59.8188 17.9199 59.8188 17.9199 59.7838C17.5937 59.3293 17.34 58.8399 17.05 58.3504C14.6217 53.9455 13.3169 48.9812 13.3169 43.9819C13.3169 38.9827 14.6217 34.0184 17.05 29.6134C21.9067 20.8735 30.859 14.8953 41.0435 13.7067C41.0798 13.7067 41.116 13.7067 41.1523 13.7067C41.1523 13.7417 41.1885 13.7417 41.1885 13.7766C42.4208 13.6368 43.6531 13.5669 44.9216 13.5669C46.2264 13.5669 47.495 13.6368 48.7273 13.7766C48.7273 13.7417 48.7635 13.7067 48.7635 13.7067C48.7998 13.7067 48.836 13.7067 48.8722 13.7067C56.0848 14.5807 62.5 17.7621 67.3204 22.4117L67.2479 22.4816L62.4637 27.0963C57.7883 22.5865 51.5543 20.1044 44.9579 20.1044C31.2939 20.1044 20.167 30.837 20.167 44.0169C20.167 57.1968 31.2939 67.9294 44.9579 67.9294C51.5905 67.9294 57.7883 65.4473 62.4637 60.9375L67.2842 65.5871L69.3138 67.5449L76.8888 74.6417Z" fill="white"/>
</svg>
