<svg width="28" height="32" viewBox="0 0 28 32" fill="none" xmlns="http://www.w3.org/2000/svg">
<path d="M27.8 27.0309C24.7729 29.9508 20.7672 31.5617 16.5006 31.5995C7.6933 31.6624 0.386517 24.8159 0.203848 16.3332C0.00813025 7.58625 7.32796 0.399902 16.3571 0.399902C20.6759 0.399902 24.7338 2.02344 27.787 4.96846L25.1122 7.54849C23.1811 5.68583 20.6107 4.42728 17.7532 4.12522C17.2835 4.07488 16.8268 4.04971 16.344 4.04971C15.8743 4.04971 15.4046 4.07488 14.9479 4.12522C10.8117 4.5783 7.28882 6.98214 5.39689 10.3677L4.22258 9.76355C3.75286 9.52442 3.16571 9.71321 2.94389 10.1915C2.10883 11.966 1.65216 13.9294 1.65216 16.006C1.65216 18.0826 2.10883 20.0459 2.94389 21.8205C3.16571 22.2988 3.75286 22.4875 4.22258 22.2484L5.38384 21.6443C7.26273 25.0424 10.7987 27.4588 14.9479 27.8993C15.1436 28.4531 15.6916 28.8684 16.344 28.8684C16.9964 28.8684 17.5444 28.4657 17.7401 27.8993C17.7532 27.8742 17.7662 27.8364 17.7662 27.8112C17.7923 27.698 17.8184 27.5721 17.8184 27.4462C17.8184 27.4211 17.8184 27.3833 17.8184 27.3581C17.8184 27.2952 17.8054 27.2449 17.7923 27.1819C17.7793 27.0938 17.7532 27.0057 17.714 26.9177C17.714 26.9177 17.714 26.9177 17.714 26.9051C17.4922 26.3891 16.9703 26.0241 16.344 26.0241C15.7308 26.0241 15.1958 26.3891 14.974 26.9177C14.974 26.9177 14.974 26.9177 14.974 26.9302C14.9609 26.9302 14.9479 26.9302 14.9349 26.9302C14.3477 26.8547 13.7866 26.7415 13.2256 26.5904C13.1342 26.5653 13.0429 26.5401 12.9516 26.5149C12.8602 26.4897 12.7689 26.4646 12.6906 26.4268C12.6515 26.4142 12.5993 26.4016 12.5601 26.3765C12.4819 26.3513 12.4166 26.3261 12.3383 26.301C12.3253 26.301 12.3253 26.301 12.3122 26.2884C12.1948 26.2506 12.0774 26.2003 11.9599 26.1499C11.9599 26.1499 11.9599 26.1499 11.9469 26.1499C11.8817 26.1248 11.8034 26.087 11.7381 26.0618C11.6468 26.0241 11.5685 25.9863 11.4772 25.9486C11.3989 25.9108 11.3076 25.8731 11.2293 25.8353C11.0727 25.7598 10.9161 25.6843 10.7595 25.5962C10.7074 25.571 10.6421 25.5332 10.5899 25.5081C10.5116 25.4703 10.4464 25.4326 10.3681 25.3822C9.98972 25.1557 9.62438 24.9165 9.28514 24.6523C9.2199 24.6019 9.15466 24.5516 9.08942 24.5012C9.02418 24.4509 8.9459 24.388 8.88066 24.325C8.81542 24.2747 8.75018 24.2118 8.67189 24.1488C8.60665 24.0859 8.54141 24.0356 8.47617 23.9726C8.41093 23.9097 8.3457 23.8468 8.28046 23.7838C8.21522 23.7209 8.14998 23.658 8.08474 23.5951C8.0195 23.5321 7.96731 23.4692 7.90207 23.4063C7.65416 23.142 7.40625 22.8525 7.18444 22.5631C7.1192 22.475 7.05396 22.3869 6.98872 22.2988C6.94958 22.2484 6.91043 22.1981 6.88434 22.1477C6.83215 22.0722 6.77996 21.9967 6.72776 21.9212C6.67557 21.8457 6.63643 21.7827 6.58424 21.7072C6.58424 21.6946 6.57119 21.6946 6.57119 21.6821C6.45376 21.5185 6.36242 21.3423 6.25804 21.1661C5.38384 19.5803 4.91411 17.7931 4.91411 15.9934C4.91411 14.1937 5.38384 12.4065 6.25804 10.8207C8.00645 7.67435 11.2293 5.52222 14.8957 5.09431C14.9088 5.09431 14.9218 5.09431 14.9349 5.09431C14.9349 5.1069 14.9479 5.1069 14.9479 5.11948C15.3915 5.06914 15.8351 5.04397 16.2918 5.04397C16.7615 5.04397 17.2182 5.06914 17.6618 5.11948C17.6618 5.1069 17.6749 5.09431 17.6749 5.09431C17.6879 5.09431 17.701 5.09431 17.714 5.09431C20.3106 5.40895 22.62 6.55423 24.3554 8.22811L24.3293 8.25328L22.607 9.91458C20.9238 8.29104 18.6796 7.39747 16.3049 7.39747C11.3858 7.39747 7.38016 11.2612 7.38016 16.006C7.38016 20.7507 11.3858 24.6145 16.3049 24.6145C18.6926 24.6145 20.9238 23.7209 22.607 22.0974L24.3423 23.7713L25.073 24.4761L27.8 27.0309Z" fill="white"/>
</svg>
