<svg width="20" height="22" viewBox="0 0 20 22" fill="none" xmlns="http://www.w3.org/2000/svg">
<path d="M19.3331 18.3541C17.315 20.3007 14.6446 21.3746 11.8002 21.3998C5.92863 21.4418 1.05744 16.8774 0.935662 11.2223C0.805184 5.391 5.68507 0.600098 11.7045 0.600098C14.5837 0.600098 17.2889 1.68245 19.3244 3.6458L17.5412 5.36582C16.2538 4.12405 14.5402 3.28501 12.6352 3.08365C12.3221 3.05008 12.0176 3.0333 11.6958 3.0333C11.3826 3.0333 11.0695 3.05008 10.765 3.08365C8.00759 3.3857 5.65898 4.98826 4.39769 7.24527L3.61482 6.84253C3.30167 6.68311 2.91023 6.80897 2.76236 7.1278C2.20565 8.31084 1.9012 9.61974 1.9012 11.0041C1.9012 12.3886 2.20565 13.6975 2.76236 14.8805C2.91023 15.1993 3.30167 15.3252 3.61482 15.1658L4.38899 14.763C5.64158 17.0284 7.99889 18.6394 10.765 18.933C10.8955 19.3022 11.2608 19.5791 11.6958 19.5791C12.1307 19.5791 12.496 19.3106 12.6265 18.933C12.6352 18.9163 12.6439 18.8911 12.6439 18.8743C12.6613 18.7988 12.6787 18.7149 12.6787 18.631C12.6787 18.6142 12.6787 18.589 12.6787 18.5723C12.6787 18.5303 12.67 18.4967 12.6613 18.4548C12.6526 18.3961 12.6352 18.3373 12.6091 18.2786C12.6091 18.2786 12.6091 18.2786 12.6091 18.2702C12.4612 17.9262 12.1133 17.6829 11.6958 17.6829C11.2869 17.6829 10.9303 17.9262 10.7824 18.2786C10.7824 18.2786 10.7824 18.2786 10.7824 18.287C10.7737 18.287 10.765 18.287 10.7563 18.287C10.3649 18.2366 9.99086 18.1611 9.61682 18.0604C9.55593 18.0437 9.49504 18.0269 9.43415 18.0101C9.37326 17.9933 9.31237 17.9765 9.26018 17.9514C9.23408 17.943 9.19929 17.9346 9.17319 17.9178C9.121 17.901 9.07751 17.8842 9.02532 17.8675C9.01662 17.8675 9.01662 17.8675 9.00792 17.8591C8.92963 17.8339 8.85135 17.8003 8.77306 17.7668C8.77306 17.7668 8.77306 17.7668 8.76436 17.7668C8.72087 17.75 8.66868 17.7248 8.62518 17.708C8.56429 17.6829 8.5121 17.6577 8.45121 17.6325C8.39902 17.6074 8.33813 17.5822 8.28594 17.557C8.18156 17.5067 8.07718 17.4563 7.97279 17.3976C7.938 17.3808 7.89451 17.3557 7.85971 17.3389C7.80752 17.3137 7.76403 17.2885 7.71184 17.255C7.45958 17.1039 7.21602 16.9445 6.98986 16.7683C6.94636 16.7348 6.90287 16.7012 6.85938 16.6676C6.81589 16.6341 6.76369 16.5921 6.7202 16.5502C6.67671 16.5166 6.63322 16.4747 6.58102 16.4327C6.53753 16.3908 6.49404 16.3572 6.45055 16.3152C6.40705 16.2733 6.36356 16.2313 6.32007 16.1894C6.27658 16.1474 6.23308 16.1055 6.18959 16.0635C6.1461 16.0216 6.1113 15.9796 6.06781 15.9377C5.90254 15.7615 5.73726 15.5685 5.58939 15.3755C5.5459 15.3168 5.5024 15.2581 5.45891 15.1993C5.43282 15.1658 5.40672 15.1322 5.38932 15.0986C5.35453 15.0483 5.31973 14.998 5.28494 14.9476C5.25015 14.8973 5.22405 14.8553 5.18926 14.805C5.18926 14.7966 5.18056 14.7966 5.18056 14.7882C5.10227 14.6791 5.04138 14.5617 4.97179 14.4442C4.38899 13.387 4.07584 12.1956 4.07584 10.9958C4.07584 9.79594 4.38899 8.60451 4.97179 7.54732C6.1374 5.44973 8.28594 4.01498 10.7302 3.7297C10.7389 3.7297 10.7476 3.7297 10.7563 3.7297C10.7563 3.73809 10.765 3.73809 10.765 3.74648C11.0608 3.71292 11.3565 3.69614 11.661 3.69614C11.9741 3.69614 12.2786 3.71292 12.5743 3.74648C12.5743 3.73809 12.583 3.7297 12.583 3.7297C12.5917 3.7297 12.6004 3.7297 12.6091 3.7297C14.3401 3.93946 15.8798 4.70299 17.0367 5.8189L17.0193 5.83568L15.8711 6.94321C14.749 5.86086 13.2528 5.26514 11.6697 5.26514C8.39032 5.26514 5.71987 7.84098 5.71987 11.0041C5.71987 14.1673 8.39032 16.7432 11.6697 16.7432C13.2615 16.7432 14.749 16.1474 15.8711 15.0651L17.028 16.181L17.5151 16.6509L19.3331 18.3541Z" fill="#622CEA"/>
</svg>
