<svg width="144" height="87" viewBox="0 0 144 87" fill="none" xmlns="http://www.w3.org/2000/svg">
<path d="M36 20.7778H108" stroke="#FE2B54" stroke-width="6" stroke-linecap="round" stroke-linejoin="round"/>
<path d="M63 38.5556V65.2222" stroke="#FE2B54" stroke-width="6" stroke-linecap="round" stroke-linejoin="round"/>
<path d="M81 38.5556V65.2222" stroke="#FE2B54" stroke-width="6" stroke-linecap="round" stroke-linejoin="round"/>
<path d="M40.5 20.7778L45 74.1111C45 79.0203 49.0294 83 54 83H90C94.9706 83 99 79.0203 99 74.1111L103.5 20.7778" stroke="#FE2B54" stroke-width="6" stroke-linecap="round" stroke-linejoin="round"/>
<path d="M58.5 20.7778V7.44444C58.5 4.98985 60.5147 3 63 3H81C83.4853 3 85.5 4.98985 85.5 7.44444V20.7778" stroke="#FE2B54" stroke-width="6" stroke-linecap="round" stroke-linejoin="round"/>
<path d="M124 74L112 85" stroke="#FE2B54" stroke-width="3" stroke-linecap="round" stroke-linejoin="round"/>
<path d="M112 74L124 85" stroke="#FE2B54" stroke-width="3" stroke-linecap="round" stroke-linejoin="round"/>
<path d="M130 6L126 9" stroke="#FE2B54" stroke-linecap="round" stroke-linejoin="round"/>
<path d="M126 6L130 9" stroke="#FE2B54" stroke-linecap="round" stroke-linejoin="round"/>
<path d="M5 31L1 34" stroke="#FE2B54" stroke-linecap="round" stroke-linejoin="round"/>
<path d="M1 31L5 34" stroke="#FE2B54" stroke-linecap="round" stroke-linejoin="round"/>
<path d="M143 45L137 50" stroke="#FE2B54" stroke-width="1.5" stroke-linecap="round" stroke-linejoin="round"/>
<path d="M137 45L143 50" stroke="#FE2B54" stroke-width="1.5" stroke-linecap="round" stroke-linejoin="round"/>
<path d="M20 64L14 69" stroke="#FE2B54" stroke-width="1.5" stroke-linecap="round" stroke-linejoin="round"/>
<path d="M14 64L20 69" stroke="#FE2B54" stroke-width="1.5" stroke-linecap="round" stroke-linejoin="round"/>
</svg>
