<svg width="42" height="42" viewBox="0 0 42 42" fill="none" xmlns="http://www.w3.org/2000/svg">
<rect x="0.5" y="0.5" width="41" height="41" rx="20.5" fill="#FE2B54"/>
<rect x="0.5" y="0.5" width="41" height="41" rx="20.5" stroke="white"/>
<path d="M12 20.25C11.5858 20.25 11.25 20.5858 11.25 21C11.25 21.4142 11.5858 21.75 12 21.75V20.25ZM13 21.75C13.4142 21.75 13.75 21.4142 13.75 21C13.75 20.5858 13.4142 20.25 13 20.25V21.75ZM21.75 12C21.75 11.5858 21.4142 11.25 21 11.25C20.5858 11.25 20.25 11.5858 20.25 12H21.75ZM20.25 13C20.25 13.4142 20.5858 13.75 21 13.75C21.4142 13.75 21.75 13.4142 21.75 13H20.25ZM29 20.25C28.5858 20.25 28.25 20.5858 28.25 21C28.25 21.4142 28.5858 21.75 29 21.75V20.25ZM30 21.75C30.4142 21.75 30.75 21.4142 30.75 21C30.75 20.5858 30.4142 20.25 30 20.25V21.75ZM15.1303 14.0697C14.8374 13.7768 14.3625 13.7768 14.0696 14.0697C13.7767 14.3626 13.7767 14.8374 14.0696 15.1303L15.1303 14.0697ZM14.7696 15.8303C15.0625 16.1232 15.5374 16.1232 15.8303 15.8303C16.1232 15.5374 16.1232 15.0626 15.8303 14.7697L14.7696 15.8303ZM27.9304 15.1303C28.2233 14.8374 28.2233 14.3626 27.9304 14.0697C27.6375 13.7768 27.1626 13.7768 26.8697 14.0697L27.9304 15.1303ZM26.1697 14.7697C25.8768 15.0626 25.8768 15.5374 26.1697 15.8303C26.4626 16.1232 26.9375 16.1232 27.2304 15.8303L26.1697 14.7697ZM12 21.75H13V20.25H12V21.75ZM20.25 12V13H21.75V12H20.25ZM29 21.75H30V20.25H29V21.75ZM14.0696 15.1303L14.7696 15.8303L15.8303 14.7697L15.1303 14.0697L14.0696 15.1303ZM26.8697 14.0697L26.1697 14.7697L27.2304 15.8303L27.9304 15.1303L26.8697 14.0697Z" fill="white"/>
<path d="M18.0003 25C16.2786 23.7087 15.5763 21.4606 16.2569 19.4189C16.9375 17.3772 18.8482 16 21.0003 16C23.1525 16 25.0632 17.3772 25.7437 19.4189C26.4243 21.4606 25.722 23.7087 24.0003 25C23.2085 25.7838 22.8371 26.8978 23.0003 28C23.0003 29.1046 22.1049 30 21.0003 30C19.8958 30 19.0003 29.1046 19.0003 28C19.1635 26.8978 18.7922 25.7838 18.0003 25" stroke="white" stroke-width="1.5" stroke-linecap="round" stroke-linejoin="round"/>
<path d="M18.7002 26H23.3002" stroke="white" stroke-width="1.5" stroke-linecap="round" stroke-linejoin="round"/>
</svg>
