<svg width="16" height="18" viewBox="0 0 16 18" fill="none" xmlns="http://www.w3.org/2000/svg">
    <path fill-rule="evenodd" clip-rule="evenodd"
        d="M10.5861 1.00003L10.5861 9.00003L14.1721 9.00003C14.5765 9.00012 14.941 9.24376 15.0957 9.61737C15.2505 9.99099 15.165 10.421 14.8791 10.707L8.29306 17.293C7.90256 17.6834 7.26956 17.6834 6.87906 17.293L0.293059 10.707C0.00715098 10.421 -0.0783631 9.99099 0.076381 9.61738C0.231125 9.24376 0.595662 9.00012 1.00006 9.00003L4.58606 9.00003L4.58606 1.00003C4.58606 0.447745 5.03377 2.94965e-05 5.58606 2.94482e-05L9.58606 2.90986e-05C10.1383 2.90503e-05 10.5861 0.447745 10.5861 1.00003Z"
        fill="#FE2B54" />
</svg>
