<svg width="20" height="20" viewBox="0 0 20 20" fill="none" xmlns="http://www.w3.org/2000/svg">
<circle cx="10" cy="10" r="9" stroke="#27262A" stroke-linecap="round" stroke-linejoin="round"/>
<path d="M12.8 6.99979C12.4309 6.35947 11.7387 5.97493 11 5.99979H9C7.89543 5.99979 7 6.89522 7 7.99979C7 9.10436 7.89543 9.99979 9 9.99979H11C12.1046 9.99979 13 10.8952 13 11.9998C13 13.1044 12.1046 13.9998 11 13.9998H9C8.26132 14.0247 7.56913 13.6401 7.2 12.9998" stroke="#27262A" stroke-linecap="round" stroke-linejoin="round"/>
<path d="M10.5 4C10.5 3.72386 10.2761 3.5 10 3.5C9.72386 3.5 9.5 3.72386 9.5 4H10.5ZM9.5 6C9.5 6.27614 9.72386 6.5 10 6.5C10.2761 6.5 10.5 6.27614 10.5 6H9.5ZM10.5 14C10.5 13.7239 10.2761 13.5 10 13.5C9.72386 13.5 9.5 13.7239 9.5 14H10.5ZM9.5 16C9.5 16.2761 9.72386 16.5 10 16.5C10.2761 16.5 10.5 16.2761 10.5 16H9.5ZM9.5 4V6H10.5V4H9.5ZM9.5 14V16H10.5V14H9.5Z" fill="#27262A"/>
</svg>
