<svg width="18" height="20" viewBox="0 0 18 20" fill="none" xmlns="http://www.w3.org/2000/svg">
<ellipse cx="9.00047" cy="10" rx="2.66648" ry="2.7" stroke="#27262A" stroke-linecap="round" stroke-linejoin="round"/>
<path fill-rule="evenodd" clip-rule="evenodd" d="M9.00019 1C10.4728 1 11.6667 2.20883 11.6667 3.7C11.6667 4.2058 11.4365 4.9978 10.9769 6.076L10.3334 7.3L11.8978 5.5963C12.3413 5.0563 12.7173 4.6945 13.0266 4.5118C13.6351 4.15403 14.3596 4.05726 15.0389 4.243C15.7182 4.42875 16.2961 4.88161 16.6441 5.5009C17.3759 6.79114 16.9434 8.43747 15.6753 9.1891C15.3429 9.3844 14.7953 9.5455 14.0345 9.6706L11.6667 10L13.7999 10.2934C14.6842 10.4239 15.3091 10.5967 15.6753 10.8118C16.9434 11.5634 17.3759 13.2098 16.6441 14.5C16.296 15.1191 15.718 15.5718 15.0387 15.7574C14.3594 15.9429 13.635 15.846 13.0266 15.4882C12.7173 15.3064 12.3413 14.9446 11.8978 14.4037L10.3334 12.7L10.9769 13.924C11.4356 15.0031 11.6667 15.7951 11.6667 16.3C11.6667 17.7912 10.4728 19 9.00019 19C7.52753 19 6.33371 17.7912 6.33371 16.3C6.33371 15.7942 6.56391 15.0022 7.02344 13.924L7.66695 12.7L6.10261 14.4037C5.65909 14.9446 5.28311 15.3064 4.9738 15.4882C4.36538 15.846 3.641 15.9429 2.96168 15.7574C2.28235 15.5718 1.70439 15.1191 1.35627 14.5C0.624527 13.2098 1.05699 11.5634 2.32509 10.8118C2.65752 10.6156 3.20503 10.4554 3.96587 10.3294L6.33371 10L4.20052 9.7075C3.31614 9.577 2.69129 9.4042 2.32509 9.1891C1.05646 8.43744 0.623927 6.79044 1.35627 5.5C1.70424 4.88071 2.28214 4.42785 2.96147 4.2421C3.64081 4.05636 4.36527 4.15313 4.9738 4.5109C5.28311 4.6936 5.65909 5.0545 6.10261 5.5954L7.66695 7.3C6.77812 5.2372 6.33371 4.0375 6.33371 3.7C6.33371 2.20883 7.52753 1 9.00019 1V1Z" stroke="#27262A" stroke-linecap="round" stroke-linejoin="round"/>
</svg>
