<svg width="18" height="20" viewBox="0 0 18 20" fill="none" xmlns="http://www.w3.org/2000/svg">
<path d="M5.34912 10.8998V4.1498C5.34912 3.40422 6.00118 2.7998 6.80553 2.7998C7.60988 2.7998 8.26193 3.40422 8.26193 4.1498V9.9998" stroke="#27262A" stroke-linecap="round" stroke-linejoin="round"/>
<path d="M8.26172 4.15V2.35C8.26172 1.86769 8.53931 1.42202 8.98992 1.18087C9.44054 0.939711 9.99571 0.939711 10.4463 1.18087C10.8969 1.42202 11.1745 1.86769 11.1745 2.35V10" stroke="#27262A" stroke-linecap="round" stroke-linejoin="round"/>
<path d="M11.1748 4.1498C11.1748 3.40422 11.8269 2.7998 12.6312 2.7998C13.4356 2.7998 14.0876 3.40422 14.0876 4.1498V9.9998" stroke="#27262A" stroke-linecap="round" stroke-linejoin="round"/>
<path d="M14.0872 5.9501C14.0872 5.20451 14.7392 4.6001 15.5436 4.6001C16.3479 4.6001 17 5.20451 17 5.9501V13.6001C17 16.5824 14.3918 19.0001 11.1744 19.0001H9.2325H9.43446C7.47465 19.0004 5.64601 18.0873 4.56812 16.5701C4.50444 16.4802 4.441 16.3902 4.37782 16.3001C4.07488 15.869 3.01171 14.1509 1.18732 11.1449C0.800595 10.5077 1.0313 9.70102 1.70774 9.3251C2.42068 8.92857 3.33323 9.03245 3.92148 9.5771L5.34875 10.9001" stroke="#27262A" stroke-linecap="round" stroke-linejoin="round"/>
</svg>
