<svg width="52" height="52" viewBox="0 0 52 52" fill="none" xmlns="http://www.w3.org/2000/svg">
<circle cx="26" cy="26" r="24" stroke="#622CEA" stroke-width="3" stroke-linecap="round" stroke-linejoin="round"/>
<path d="M17.9997 18H18.0264" stroke="#622CEA" stroke-width="3" stroke-linecap="round" stroke-linejoin="round"/>
<path d="M33.9997 18H34.0264" stroke="#622CEA" stroke-width="3" stroke-linecap="round" stroke-linejoin="round"/>
<path d="M16.8335 28.6667C16.8335 27.8383 16.1619 27.1667 15.3335 27.1667C14.5051 27.1667 13.8335 27.8383 13.8335 28.6667H16.8335ZM38.1668 28.6667C38.1668 27.8383 37.4953 27.1667 36.6668 27.1667C35.8384 27.1667 35.1668 27.8383 35.1668 28.6667H38.1668ZM36.6668 30.1667C37.4953 30.1667 38.1668 29.4951 38.1668 28.6667C38.1668 27.8383 37.4953 27.1667 36.6668 27.1667V30.1667ZM15.3335 27.1667C14.5051 27.1667 13.8335 27.8383 13.8335 28.6667C13.8335 29.4951 14.5051 30.1667 15.3335 30.1667V27.1667ZM13.8335 28.6667C13.8335 35.3862 19.2807 40.8334 26.0002 40.8334V37.8334C20.9376 37.8334 16.8335 33.7293 16.8335 28.6667H13.8335ZM26.0002 40.8334C32.7196 40.8334 38.1668 35.3862 38.1668 28.6667H35.1668C35.1668 33.7293 31.0628 37.8334 26.0002 37.8334V40.8334ZM36.6668 27.1667H15.3335V30.1667H36.6668V27.1667Z" fill="#622CEA"/>
</svg>
