<svg width="16" height="22" viewBox="0 0 16 22" fill="none" xmlns="http://www.w3.org/2000/svg">
<path fill-rule="evenodd" clip-rule="evenodd" d="M8.0007 1C10.2169 1 12.0134 2.74436 12.0134 4.89614V10.9568C12.0134 13.1086 10.2169 14.853 8.0007 14.853C5.78452 14.853 3.98796 13.1086 3.98796 10.9568V4.89614C3.98796 2.74436 5.78452 1 8.0007 1ZM1.53503 9.94238C1.80097 9.94238 2.0216 10.1308 2.06306 10.3776L2.07006 10.4619V10.5761C2.07006 13.8143 4.72694 16.436 8 16.436C11.2034 16.436 13.8166 13.9247 13.9263 10.7819L13.9299 10.5761V10.4709C13.9299 10.184 14.1695 9.95139 14.465 9.95139C14.7309 9.95139 14.9515 10.1398 14.993 10.3866L15 10.4709L14.9967 10.7909C14.887 14.324 12.081 17.1911 8.53491 17.4551L8.53503 20.4807C8.53503 20.7676 8.29549 21.0002 8 21.0002C7.73406 21.0002 7.51344 20.8118 7.47197 20.565L7.46497 20.4807L7.46539 17.4551C3.92135 17.1914 1.11655 14.3277 1.00354 10.7976L1 10.4619C1 10.175 1.23954 9.94238 1.53503 9.94238ZM5.05845 4.89624C5.05845 3.31826 6.37593 2.03906 8.00113 2.03906C9.62632 2.03906 10.9438 3.31826 10.9438 4.89624V10.9569C10.9438 12.5349 9.62632 13.8141 8.00113 13.8141C6.37593 13.8141 5.05845 12.5349 5.05845 10.9569V4.89624Z" fill="#27262A"/>
<path d="M2.06306 10.3776L2.3122 10.3569L2.31134 10.3465L2.30961 10.3362L2.06306 10.3776ZM2.07006 10.4619H2.32006V10.4515L2.3192 10.4412L2.07006 10.4619ZM13.9263 10.7819L14.1762 10.7907L14.1763 10.7863L13.9263 10.7819ZM13.9299 10.5761L14.1799 10.5805V10.5761H13.9299ZM14.993 10.3866L15.2421 10.3659L15.2413 10.3555L15.2395 10.3452L14.993 10.3866ZM15 10.4709L15.25 10.4735L15.2501 10.4618L15.2491 10.4502L15 10.4709ZM14.9967 10.7909L15.2466 10.7986L15.2467 10.7935L14.9967 10.7909ZM8.53491 17.4551L8.51635 17.2058L8.2849 17.223L8.28491 17.4551L8.53491 17.4551ZM8.53503 20.4807H8.78503V20.4807L8.53503 20.4807ZM7.47197 20.565L7.22283 20.5857L7.2237 20.5961L7.22543 20.6064L7.47197 20.565ZM7.46497 20.4807L7.21497 20.4807L7.21497 20.4911L7.21583 20.5014L7.46497 20.4807ZM7.46539 17.4551L7.71539 17.4552L7.71542 17.223L7.48394 17.2058L7.46539 17.4551ZM1.00354 10.7976L0.753497 10.8002L0.753668 10.8056L1.00354 10.7976ZM1 10.4619H0.749986L0.750014 10.4645L1 10.4619ZM12.2634 4.89614C12.2634 2.59939 10.3479 0.75 8.0007 0.75V1.25C10.0858 1.25 11.7634 2.88933 11.7634 4.89614H12.2634ZM12.2634 10.9568V4.89614H11.7634V10.9568H12.2634ZM8.0007 15.103C10.3479 15.103 12.2634 13.2536 12.2634 10.9568H11.7634C11.7634 12.9636 10.0858 14.603 8.0007 14.603V15.103ZM3.73796 10.9568C3.73796 13.2536 5.65345 15.103 8.0007 15.103V14.603C5.91559 14.603 4.23796 12.9636 4.23796 10.9568H3.73796ZM3.73796 4.89614V10.9568H4.23796V4.89614H3.73796ZM8.0007 0.75C5.65345 0.75 3.73796 2.59939 3.73796 4.89614H4.23796C4.23796 2.88933 5.91559 1.25 8.0007 1.25V0.75ZM2.30961 10.3362C2.24736 9.96568 1.91971 9.69238 1.53503 9.69238V10.1924C1.68224 10.1924 1.79583 10.2959 1.81652 10.419L2.30961 10.3362ZM2.3192 10.4412L2.3122 10.3569L1.81392 10.3983L1.82092 10.4826L2.3192 10.4412ZM2.32006 10.5761V10.4619H1.82006V10.5761H2.32006ZM8 16.186C4.86209 16.186 2.32006 13.6733 2.32006 10.5761H1.82006C1.82006 13.9552 4.59178 16.686 8 16.686V16.186ZM13.6765 10.7732C13.5715 13.779 11.071 16.186 8 16.186V16.686C11.3358 16.686 14.0617 14.0703 14.1762 10.7907L13.6765 10.7732ZM13.68 10.5718L13.6764 10.7776L14.1763 10.7863L14.1799 10.5805L13.68 10.5718ZM13.6799 10.4709V10.5761H14.1799V10.4709H13.6799ZM14.465 9.70139C14.0384 9.70139 13.6799 10.039 13.6799 10.4709H14.1799C14.1799 10.3289 14.3005 10.2014 14.465 10.2014V9.70139ZM15.2395 10.3452C15.1773 9.97469 14.8496 9.70139 14.465 9.70139V10.2014C14.6122 10.2014 14.7258 10.3049 14.7465 10.428L15.2395 10.3452ZM15.2491 10.4502L15.2421 10.3659L14.7439 10.4073L14.7509 10.4916L15.2491 10.4502ZM15.2467 10.7935L15.25 10.4735L14.75 10.4683L14.7467 10.7883L15.2467 10.7935ZM8.55347 17.7044C12.2237 17.4312 15.1328 14.463 15.2466 10.7986L14.7468 10.7831C14.6412 14.185 11.9384 16.951 8.51635 17.2058L8.55347 17.7044ZM8.78503 20.4807L8.78491 17.4551L8.28491 17.4551L8.28503 20.4807L8.78503 20.4807ZM8 21.2502C8.42656 21.2502 8.78503 20.9126 8.78503 20.4807H8.28503C8.28503 20.6226 8.16442 20.7502 8 20.7502V21.2502ZM7.22543 20.6064C7.28767 20.9769 7.61533 21.2502 8 21.2502V20.7502C7.85279 20.7502 7.7392 20.6467 7.71852 20.5235L7.22543 20.6064ZM7.21583 20.5014L7.22283 20.5857L7.72111 20.5443L7.71411 20.46L7.21583 20.5014ZM7.21539 17.4551L7.21497 20.4807L7.71497 20.4807L7.71539 17.4552L7.21539 17.4551ZM0.753668 10.8056C0.870872 14.4668 3.77875 17.4315 7.44684 17.7044L7.48394 17.2058C4.06395 16.9513 1.36222 14.1886 1.25341 10.7896L0.753668 10.8056ZM0.750014 10.4645L0.753554 10.8002L1.25353 10.795L1.24999 10.4592L0.750014 10.4645ZM1.53503 9.69238C1.10847 9.69238 0.75 10.03 0.75 10.4619H1.25C1.25 10.3199 1.37061 10.1924 1.53503 10.1924V9.69238ZM8.00113 1.78906C6.24486 1.78906 4.80845 3.17329 4.80845 4.89624H5.30845C5.30845 3.46323 6.50701 2.28906 8.00113 2.28906V1.78906ZM11.1938 4.89624C11.1938 3.17329 9.75739 1.78906 8.00113 1.78906V2.28906C9.49525 2.28906 10.6938 3.46323 10.6938 4.89624H11.1938ZM11.1938 10.9569V4.89624H10.6938V10.9569H11.1938ZM8.00113 14.0641C9.75739 14.0641 11.1938 12.6798 11.1938 10.9569H10.6938C10.6938 12.3899 9.49525 13.5641 8.00113 13.5641V14.0641ZM4.80845 10.9569C4.80845 12.6798 6.24486 14.0641 8.00113 14.0641V13.5641C6.50701 13.5641 5.30845 12.3899 5.30845 10.9569H4.80845ZM4.80845 4.89624V10.9569H5.30845V4.89624H4.80845Z" fill="#27262A"/>
</svg>
