<svg width="42" height="42" viewBox="0 0 42 42" fill="none" xmlns="http://www.w3.org/2000/svg">
<path d="M22 25L16.5 19.5L19 27L17.5 32.5L22 34V25Z" fill="#EBEBEB"/>
<path fill-rule="evenodd" clip-rule="evenodd" d="M14 15.75L22.75 24.5V36.75H14V29.75M14 36.75H5.25V24.5L14 15.75M15.75 17.5V7C15.75 6.0335 16.5335 5.25 17.5 5.25H35C35.9665 5.25 36.75 6.0335 36.75 7V36.75H22.75" fill="#EBEBEB"/>
<path d="M14.7071 15.0429C14.3166 14.6524 13.6834 14.6524 13.2929 15.0429C12.9024 15.4334 12.9024 16.0666 13.2929 16.4571L14.7071 15.0429ZM22.75 24.5H23.75C23.75 24.2348 23.6446 23.9804 23.4571 23.7929L22.75 24.5ZM22.75 36.75V37.75C23.3023 37.75 23.75 37.3023 23.75 36.75H22.75ZM14 36.75H13C13 37.3023 13.4477 37.75 14 37.75V36.75ZM15 29.75C15 29.1977 14.5523 28.75 14 28.75C13.4477 28.75 13 29.1977 13 29.75H15ZM14 37.75C14.5523 37.75 15 37.3023 15 36.75C15 36.1977 14.5523 35.75 14 35.75V37.75ZM5.25 36.75H4.25C4.25 37.3023 4.69772 37.75 5.25 37.75V36.75ZM5.25 24.5L4.54289 23.7929C4.35536 23.9804 4.25 24.2348 4.25 24.5H5.25ZM14.7071 16.4571C15.0976 16.0666 15.0976 15.4334 14.7071 15.0429C14.3166 14.6524 13.6834 14.6524 13.2929 15.0429L14.7071 16.4571ZM14.75 17.5C14.75 18.0523 15.1977 18.5 15.75 18.5C16.3023 18.5 16.75 18.0523 16.75 17.5H14.75ZM36.75 36.75V37.75C37.3023 37.75 37.75 37.3023 37.75 36.75H36.75ZM22.75 35.75C22.1977 35.75 21.75 36.1977 21.75 36.75C21.75 37.3023 22.1977 37.75 22.75 37.75V35.75ZM13.2929 16.4571L22.0429 25.2071L23.4571 23.7929L14.7071 15.0429L13.2929 16.4571ZM21.75 24.5V36.75H23.75V24.5H21.75ZM22.75 35.75H14V37.75H22.75V35.75ZM15 36.75V29.75H13V36.75H15ZM14 35.75H5.25V37.75H14V35.75ZM6.25 36.75V24.5H4.25V36.75H6.25ZM5.95711 25.2071L14.7071 16.4571L13.2929 15.0429L4.54289 23.7929L5.95711 25.2071ZM16.75 17.5V7H14.75V17.5H16.75ZM16.75 7C16.75 6.58579 17.0858 6.25 17.5 6.25V4.25C15.9812 4.25 14.75 5.48122 14.75 7H16.75ZM17.5 6.25H35V4.25H17.5V6.25ZM35 6.25C35.4142 6.25 35.75 6.58579 35.75 7H37.75C37.75 5.48122 36.5188 4.25 35 4.25V6.25ZM35.75 7V36.75H37.75V7H35.75ZM36.75 35.75H22.75V37.75H36.75V35.75Z" fill="#919191"/>
<path d="M22.75 12.25V12.2675" stroke="#919191" stroke-width="2" stroke-linecap="round" stroke-linejoin="round"/>
<path d="M29.75 12.25V12.2675" stroke="#919191" stroke-width="2" stroke-linecap="round" stroke-linejoin="round"/>
<path d="M29.75 19.25V19.2675" stroke="#919191" stroke-width="2" stroke-linecap="round" stroke-linejoin="round"/>
<path d="M29.75 26.25V26.2675" stroke="#919191" stroke-width="2" stroke-linecap="round" stroke-linejoin="round"/>
</svg>
