<svg width="42" height="42" viewBox="0 0 42 42" fill="none" xmlns="http://www.w3.org/2000/svg">
    <path opacity="0.2"
        d="M6.56252 18.9492V34.4375H7.56252M6.56252 18.9492L24.9375 24.9375H23.9375H18.0625H17.0625V25.9375V34.4375H16.0625M6.56252 18.9492C6.56156 18.7669 6.59905 18.5865 6.67256 18.4197C6.74606 18.2529 6.85391 18.1035 6.98908 17.9812L6.56252 18.9492ZM7.56252 34.4375V35.4375H16.0625V34.4375M7.56252 34.4375L7.56253 18.9492L7.5625 18.944C7.56228 18.9023 7.57085 18.8611 7.58764 18.823C7.60444 18.7849 7.62908 18.7508 7.65995 18.7228L7.66161 18.7213L20.7866 6.79397L20.7866 6.79398L20.7913 6.78969C20.846 6.73938 20.9175 6.71146 20.9918 6.71146C21.0661 6.71146 21.1377 6.73938 21.1923 6.78969L21.1923 6.78971L21.1975 6.79439L34.3292 18.713C34.362 18.7451 34.3884 18.7833 34.407 18.8254C34.4257 18.8679 34.4361 18.9135 34.4375 18.9599V34.4375M7.56252 34.4375H16.0625M16.0625 34.4375V24.9375V23.9375H17.0625H24.9375H25.9375V24.9375V34.4375M34.4375 34.4375H25.9375M34.4375 34.4375H25.9375M34.4375 34.4375H25.9375"
        fill="#622CEA" stroke="#622CEA" stroke-width="2" />
    <path
        d="M35.4375 35.4375V18.9492C35.4346 18.7676 35.3953 18.5884 35.322 18.4221C35.2488 18.2559 35.143 18.106 35.0109 17.9812L21.8695 6.0539C21.6303 5.83369 21.317 5.71146 20.9918 5.71146C20.6666 5.71146 20.3533 5.83369 20.1141 6.0539L6.98906 17.9812C6.8539 18.1035 6.74604 18.2529 6.67254 18.4197C6.59904 18.5865 6.56154 18.7669 6.5625 18.9492V35.4375"
        fill="#D1C1F9" />
    <path
        d="M24.9375 35.4375V26.25C24.9375 25.9019 24.7992 25.5681 24.5531 25.3219C24.3069 25.0758 23.9731 24.9375 23.625 24.9375H18.375C18.0269 24.9375 17.6931 25.0758 17.4469 25.3219C17.2008 25.5681 17.0625 25.9019 17.0625 26.25V35.4375"
        fill="#D1C1F9" />
    <path
        d="M35.4375 35.4375V18.9492C35.4346 18.7676 35.3953 18.5884 35.322 18.4221C35.2488 18.2559 35.143 18.106 35.0109 17.9812L21.8695 6.0539C21.6303 5.83369 21.317 5.71146 20.9918 5.71146C20.6666 5.71146 20.3533 5.83369 20.1141 6.0539L6.98906 17.9812C6.8539 18.1035 6.74604 18.2529 6.67254 18.4197C6.59904 18.5865 6.56154 18.7669 6.5625 18.9492V35.4375M2.625 35.4375H39.375M24.9375 35.4375V26.25C24.9375 25.9019 24.7992 25.5681 24.5531 25.3219C24.3069 25.0758 23.9731 24.9375 23.625 24.9375H18.375C18.0269 24.9375 17.6931 25.0758 17.4469 25.3219C17.2008 25.5681 17.0625 25.9019 17.0625 26.25V35.4375"
        stroke="#622CEA" stroke-width="2" stroke-linecap="round" stroke-linejoin="round" />
</svg>
