<svg width="121" height="97" viewBox="0 0 121 97" fill="none" xmlns="http://www.w3.org/2000/svg">
    <path
        d="M113.796 56.1401L112.827 56.3936L112.698 54.0472L111.382 54.3912L111.319 53.3843L112.645 53.0373L112.528 51.039L111.151 51.3993L111.095 50.3966L112.478 50.0348L112.348 47.7793L113.317 47.5257L113.441 49.7827L115.153 49.3349L115.029 47.0779L116.004 46.8229L116.128 49.0798L117.511 48.718L117.579 49.7178L116.179 50.084L116.29 52.0839L117.73 51.7072L117.799 52.7127L116.348 53.0923L116.477 55.4387L115.508 55.6923L115.379 53.3459L113.667 53.7937L113.796 56.1401ZM113.582 52.8225L115.351 52.3598L115.238 50.306L113.469 50.7687L113.582 52.8225Z"
        fill="#06A0F0" />
    <path fill-rule="evenodd" clip-rule="evenodd" d="M46.334 63.6667L83.0007 27Z" fill="#06A0F0"
        fill-opacity="0.12" />
    <path d="M46.334 63.6667L83.0007 27" stroke="#06A0F0" stroke-width="6" stroke-linecap="round"
        stroke-linejoin="round" />
    <path fill-rule="evenodd" clip-rule="evenodd"
        d="M83.0002 27L61.3336 87C61.0349 87.6517 60.3838 88.0696 59.6669 88.0696C58.95 88.0696 58.2989 87.6517 58.0002 87L46.3336 63.6667L23.0002 52C22.3485 51.7013 21.9307 51.0502 21.9307 50.3333C21.9307 49.6164 22.3485 48.9653 23.0002 48.6667L83.0002 27"
        fill="#06A0F0" fill-opacity="0.12" />
    <path
        d="M83.0002 27L61.3336 87C61.0349 87.6517 60.3838 88.0696 59.6669 88.0696C58.95 88.0696 58.2989 87.6517 58.0002 87L46.3336 63.6667L23.0002 52C22.3485 51.7013 21.9307 51.0502 21.9307 50.3333C21.9307 49.6164 22.3485 48.9653 23.0002 48.6667L83.0002 27"
        stroke="#06A0F0" stroke-width="6" stroke-linecap="round" stroke-linejoin="round" />
    <path
        d="M4.79612 69.1399L3.82678 69.3935L3.69752 67.0471L2.3824 67.3911L2.31887 66.3842L3.64533 66.0372L3.52838 64.0389L2.1509 64.3992L2.09452 63.3964L3.47767 63.0346L3.34798 60.7792L4.31732 60.5256L4.44134 62.7826L6.15327 62.3347L6.02925 60.0778L7.00426 59.8228L7.12828 62.0797L8.51143 61.7179L8.57914 62.7177L7.17899 63.0839L7.29027 65.0838L8.7301 64.7071L8.7993 65.7126L7.34813 66.0922L7.47739 68.4386L6.50805 68.6921L6.37879 66.3457L4.66686 66.7935L4.79612 69.1399ZM4.5824 65.8224L6.35102 65.3597L6.23773 63.3059L4.46911 63.7686L4.5824 65.8224Z"
        fill="#06A0F0" />
    <path
        d="M47.4616 11.2275L46.6538 11.4388L46.5461 9.48348L45.4501 9.77016L45.3972 8.93105L46.5026 8.6419L46.4051 6.97661L45.2572 7.27688L45.2102 6.44126L46.3629 6.13975L46.2548 4.26022L47.0626 4.04892L47.1659 5.92969L48.5925 5.55651L48.4892 3.67574L49.3017 3.4632L49.405 5.34397L50.5577 5.04247L50.6141 5.87562L49.4473 6.18083L49.54 7.84735L50.7399 7.53349L50.7975 8.37137L49.5882 8.6877L49.696 10.643L48.8882 10.8543L48.7805 8.899L47.3538 9.27218L47.4616 11.2275ZM47.2835 8.46287L48.7573 8.07733L48.6629 6.36582L47.1891 6.75136L47.2835 8.46287Z"
        fill="#06A0F0" />
    <path
        d="M101.335 84.4635C99.9643 84.818 98.4291 84.1861 97.78 81.6758L97.7776 81.6664C97.1811 79.3594 97.836 77.7376 99.5237 77.3013C100.729 76.9896 101.811 77.4664 102.304 78.4383L102.328 78.4926L101.279 78.764L101.248 78.7216C100.924 78.2505 100.394 78.0344 99.7512 78.2007C98.6024 78.4977 98.4147 79.7415 98.7147 81.1164C98.7234 81.1697 98.7368 81.2217 98.7503 81.2737L98.8401 81.2504C98.9489 80.6373 99.4375 79.9915 100.369 79.7507C101.669 79.4145 102.849 80.1381 103.187 81.4429L103.189 81.4523C103.544 82.8233 102.768 84.0931 101.335 84.4635ZM99.2798 82.4632C99.4949 83.2952 100.292 83.785 101.096 83.5772C101.895 83.3706 102.363 82.5687 102.152 81.7508L102.149 81.7414C101.933 80.9046 101.181 80.4535 100.354 80.6674C99.5359 80.8789 99.0659 81.6359 99.2785 82.4585L99.2798 82.4632Z"
        fill="#06A0F0" />
    <path
        d="M104.578 22.6903C103.368 23.0032 102.345 22.5737 102.105 21.6471L102.103 21.6396C101.925 20.9513 102.279 20.2748 102.954 19.9349L102.949 19.916C102.291 19.9005 101.772 19.5465 101.622 18.9679L101.62 18.9603C101.404 18.1245 102.029 17.3094 103.114 17.0288C104.203 16.7472 105.141 17.1584 105.357 17.9942L105.359 18.0018C105.509 18.5804 105.23 19.1407 104.662 19.4731L104.667 19.492C105.422 19.4622 106.059 19.8825 106.237 20.5708L106.239 20.5783C106.479 21.5049 105.792 22.3764 104.578 22.6903ZM103.73 19.4114C104.343 19.253 104.667 18.7899 104.538 18.2907L104.536 18.2831C104.407 17.7839 103.897 17.5445 103.288 17.702C102.679 17.8594 102.35 18.3159 102.479 18.8151L102.481 18.8227C102.61 19.3219 103.121 19.5688 103.73 19.4114ZM104.402 22.0095C105.102 21.8286 105.494 21.3034 105.352 20.7513L105.35 20.7437C105.205 20.184 104.609 19.9065 103.905 20.0883C103.206 20.2692 102.819 20.801 102.963 21.3607L102.965 21.3683C103.108 21.9205 103.706 22.1895 104.402 22.0095Z"
        fill="#06A0F0" />
    <path
        d="M12.8233 26.7846L14.018 21.4807L14.0024 21.4202L11.1433 22.1594L10.9584 21.4446L14.676 20.4834L14.8657 21.2171L13.712 26.5548L12.8233 26.7846Z"
        fill="#06A0F0" />
    <line x1="99.8701" y1="88.7864" x2="106.705" y2="84.6293" stroke="#06A0F0" stroke-width="0.5" />
</svg>
