<svg width="20" height="20" viewBox="0 0 20 20" fill="none" xmlns="http://www.w3.org/2000/svg">
<path d="M6.35355 6.64645C6.15829 6.45118 5.84171 6.45118 5.64645 6.64645C5.45118 6.84171 5.45118 7.15829 5.64645 7.35355L6.35355 6.64645ZM11 12H11.5C11.5 11.8674 11.4473 11.7402 11.3536 11.6464L11 12ZM11 19V19.5C11.2761 19.5 11.5 19.2761 11.5 19H11ZM6 19H5.5C5.5 19.2761 5.72386 19.5 6 19.5V19ZM6.5 15C6.5 14.7239 6.27614 14.5 6 14.5C5.72386 14.5 5.5 14.7239 5.5 15H6.5ZM6 19.5C6.27614 19.5 6.5 19.2761 6.5 19C6.5 18.7239 6.27614 18.5 6 18.5V19.5ZM1 19H0.5C0.5 19.2761 0.723858 19.5 1 19.5V19ZM1 12L0.646447 11.6464C0.552678 11.7402 0.5 11.8674 0.5 12H1ZM6.35355 7.35355C6.54882 7.15829 6.54882 6.84171 6.35355 6.64645C6.15829 6.45118 5.84171 6.45118 5.64645 6.64645L6.35355 7.35355ZM6.5 8C6.5 8.27614 6.72386 8.5 7 8.5C7.27614 8.5 7.5 8.27614 7.5 8H6.5ZM19 19V19.5C19.2761 19.5 19.5 19.2761 19.5 19H19ZM11 18.5C10.7239 18.5 10.5 18.7239 10.5 19C10.5 19.2761 10.7239 19.5 11 19.5V18.5ZM5.64645 7.35355L10.6464 12.3536L11.3536 11.6464L6.35355 6.64645L5.64645 7.35355ZM10.5 12V19H11.5V12H10.5ZM11 18.5H6V19.5H11V18.5ZM6.5 19V15H5.5V19H6.5ZM6 18.5H1V19.5H6V18.5ZM1.5 19V12H0.5V19H1.5ZM1.35355 12.3536L6.35355 7.35355L5.64645 6.64645L0.646447 11.6464L1.35355 12.3536ZM7.5 8V2H6.5V8H7.5ZM7.5 2C7.5 1.72386 7.72386 1.5 8 1.5V0.5C7.17157 0.5 6.5 1.17157 6.5 2H7.5ZM8 1.5H18V0.5H8V1.5ZM18 1.5C18.2761 1.5 18.5 1.72386 18.5 2H19.5C19.5 1.17157 18.8284 0.5 18 0.5V1.5ZM18.5 2V19H19.5V2H18.5ZM19 18.5H11V19.5H19V18.5Z" fill="#27262A"/>
<path d="M11 4.99988V5.00988" stroke="#27262A" stroke-linecap="round" stroke-linejoin="round"/>
<path d="M15 4.99988V5.00988" stroke="#27262A" stroke-linecap="round" stroke-linejoin="round"/>
<path d="M15 8.99988V9.00988" stroke="#27262A" stroke-linecap="round" stroke-linejoin="round"/>
<path d="M15 12.9999V13.0099" stroke="#27262A" stroke-linecap="round" stroke-linejoin="round"/>
</svg>
