<svg width="156" height="94" viewBox="0 0 156 94" fill="none" xmlns="http://www.w3.org/2000/svg">
<path fill-rule="evenodd" clip-rule="evenodd" d="M137.625 86.1789L132 91.7499L126.375 86.1789M126.375 86.179C125.363 85.1946 124.99 83.7257 125.409 82.378C125.828 81.0302 126.969 80.0319 128.36 79.7947C129.751 79.5576 131.158 80.1217 132 81.2545C132.845 80.1301 134.249 79.5734 135.635 79.8128C137.022 80.0522 138.157 81.0474 138.577 82.3902C138.996 83.7331 138.629 85.1977 137.625 86.1835" fill="#FE2B54"/>
<path d="M138.153 86.7118C138.447 86.4203 138.449 85.9455 138.158 85.6512C137.866 85.3569 137.392 85.3546 137.097 85.646L138.153 86.7118ZM132 91.7499L131.472 92.2828C131.765 92.5723 132.235 92.5723 132.528 92.2828L132 91.7499ZM126.903 85.646C126.608 85.3546 126.134 85.3569 125.842 85.6512C125.551 85.9455 125.553 86.4203 125.847 86.7118L126.903 85.646ZM125.852 86.7165C126.149 87.0053 126.624 86.9989 126.912 86.702C127.201 86.4052 127.195 85.9303 126.898 85.6415L125.852 86.7165ZM132 81.2545L131.398 81.7019C131.539 81.8916 131.761 82.0038 131.998 82.0045C132.234 82.0051 132.457 81.8942 132.599 81.7052L132 81.2545ZM137.099 85.6484C136.804 85.9386 136.8 86.4135 137.09 86.709C137.38 87.0045 137.855 87.0088 138.151 86.7185L137.099 85.6484ZM137.097 85.646L131.472 91.217L132.528 92.2828L138.153 86.7118L137.097 85.646ZM132.528 91.217L126.903 85.646L125.847 86.7118L131.472 92.2828L132.528 91.217ZM126.898 85.6415C126.089 84.854 125.79 83.6789 126.126 82.6007L124.693 82.1553C124.19 83.7726 124.638 85.5353 125.852 86.7165L126.898 85.6415ZM126.126 82.6007C126.461 81.5225 127.373 80.7238 128.486 80.5341L128.234 79.0554C126.564 79.34 125.196 80.538 124.693 82.1553L126.126 82.6007ZM128.486 80.5341C129.599 80.3443 130.724 80.7956 131.398 81.7019L132.602 80.8071C131.592 79.4477 129.904 78.7708 128.234 79.0554L128.486 80.5341ZM132.599 81.7052C133.276 80.8057 134.399 80.3604 135.508 80.5519L135.763 79.0738C134.099 78.7865 132.415 79.4544 131.401 80.8037L132.599 81.7052ZM135.508 80.5519C136.617 80.7434 137.525 81.5395 137.861 82.6138L139.293 82.1666C138.789 80.5552 137.427 79.361 135.763 79.0738L135.508 80.5519ZM137.861 82.6138C138.196 83.6881 137.902 84.8598 137.099 85.6484L138.151 86.7185C139.355 85.5356 139.796 83.778 139.293 82.1666L137.861 82.6138Z" fill="#FE2B54"/>
<path fill-rule="evenodd" clip-rule="evenodd" d="M154.5 49.524L152 52L149.5 49.524M149.5 49.524C149.05 49.0865 148.885 48.4337 149.071 47.8347C149.257 47.2357 149.764 46.792 150.382 46.6865C151.001 46.5811 151.626 46.8319 152 47.3353C152.376 46.8356 153 46.5882 153.616 46.6946C154.232 46.801 154.737 47.2433 154.923 47.8401C155.109 48.4369 154.946 49.0879 154.5 49.526" fill="#FE2B54"/>
<path d="M154.852 49.8792C155.048 49.6849 155.05 49.3683 154.855 49.1721C154.661 48.9759 154.344 48.9744 154.148 49.1687L154.852 49.8792ZM152 52L151.648 52.3552C151.843 52.5482 152.157 52.5482 152.352 52.3552L152 52ZM149.852 49.1687C149.656 48.9744 149.339 48.9759 149.145 49.1721C148.95 49.3683 148.952 49.6849 149.148 49.8792L149.852 49.1687ZM149.151 49.8823C149.349 50.0749 149.666 50.0706 149.858 49.8727C150.051 49.6748 150.047 49.3582 149.849 49.1656L149.151 49.8823ZM152 47.3353L151.599 47.6336C151.693 47.7601 151.841 47.8349 151.999 47.8353C152.156 47.8358 152.305 47.7618 152.4 47.6358L152 47.3353ZM154.15 49.1693C153.953 49.3628 153.95 49.6793 154.143 49.8764C154.337 50.0734 154.653 50.0762 154.85 49.8827L154.15 49.1693ZM154.148 49.1687L151.648 51.6447L152.352 52.3552L154.852 49.8792L154.148 49.1687ZM152.352 51.6447L149.852 49.1687L149.148 49.8792L151.648 52.3552L152.352 51.6447ZM149.849 49.1656C149.534 48.8594 149.418 48.4024 149.548 47.9831L148.593 47.6862C148.351 48.4649 148.567 49.3136 149.151 49.8823L149.849 49.1656ZM149.548 47.9831C149.679 47.5638 150.033 47.2532 150.466 47.1794L150.298 46.1937C149.494 46.3307 148.835 46.9075 148.593 47.6862L149.548 47.9831ZM150.466 47.1794C150.899 47.1056 151.337 47.2812 151.599 47.6336L152.401 47.0371C151.915 46.3826 151.102 46.0566 150.298 46.1937L150.466 47.1794ZM152.4 47.6358C152.663 47.286 153.099 47.1128 153.531 47.1873L153.701 46.2019C152.9 46.0636 152.089 46.3852 151.6 47.0348L152.4 47.6358ZM153.531 47.1873C153.962 47.2618 154.315 47.5714 154.446 47.9892L155.4 47.691C155.158 46.9152 154.502 46.3402 153.701 46.2019L153.531 47.1873ZM154.446 47.9892C154.576 48.4069 154.462 48.8626 154.15 49.1693L154.85 49.8827C155.43 49.3131 155.643 48.4669 155.4 47.691L154.446 47.9892Z" fill="#FE2B54"/>
<path fill-rule="evenodd" clip-rule="evenodd" d="M136.875 19.393L135 21.25L133.125 19.393M133.125 19.393C132.788 19.0649 132.663 18.5752 132.803 18.126C132.943 17.6767 133.323 17.344 133.787 17.2649C134.25 17.1859 134.719 17.3739 135 17.7515C135.282 17.3767 135.75 17.1911 136.212 17.2709C136.674 17.3507 137.052 17.6825 137.192 18.1301C137.332 18.5777 137.21 19.0659 136.875 19.3945" fill="#FE2B54"/>
<path d="M137.227 19.7482C137.423 19.5539 137.425 19.2373 137.23 19.0411C137.036 18.8449 136.719 18.8434 136.523 19.0377L137.227 19.7482ZM135 21.25L134.648 21.6052C134.843 21.7982 135.157 21.7982 135.352 21.6052L135 21.25ZM133.477 19.0377C133.281 18.8434 132.964 18.8449 132.77 19.0411C132.575 19.2373 132.577 19.5539 132.773 19.7482L133.477 19.0377ZM132.776 19.7513C132.974 19.9439 133.291 19.9396 133.483 19.7417C133.676 19.5438 133.672 19.2272 133.474 19.0346L132.776 19.7513ZM135 17.7515L134.599 18.0497C134.693 18.1763 134.841 18.251 134.999 18.2515C135.156 18.2519 135.305 18.178 135.4 18.052L135 17.7515ZM136.525 19.0378C136.328 19.2313 136.325 19.5478 136.518 19.7449C136.712 19.9419 137.028 19.9447 137.225 19.7512L136.525 19.0378ZM136.523 19.0377L134.648 20.8947L135.352 21.6052L137.227 19.7482L136.523 19.0377ZM135.352 20.8947L133.477 19.0377L132.773 19.7482L134.648 21.6052L135.352 20.8947ZM133.474 19.0346C133.271 18.8378 133.197 18.544 133.281 18.2745L132.326 17.9775C132.13 18.6065 132.304 19.292 132.776 19.7513L133.474 19.0346ZM133.281 18.2745C133.364 18.0049 133.592 17.8052 133.871 17.7578L133.703 16.772C133.053 16.8827 132.521 17.3486 132.326 17.9775L133.281 18.2745ZM133.871 17.7578C134.149 17.7104 134.43 17.8232 134.599 18.0497L135.401 17.4532C135.008 16.9246 134.352 16.6613 133.703 16.772L133.871 17.7578ZM135.4 18.052C135.569 17.8271 135.849 17.7158 136.127 17.7636L136.297 16.7782C135.65 16.6665 134.995 16.9263 134.6 17.451L135.4 18.052ZM136.127 17.7636C136.404 17.8115 136.631 18.0106 136.715 18.2791L137.67 17.981C137.474 17.3544 136.944 16.89 136.297 16.7782L136.127 17.7636ZM136.715 18.2791C136.799 18.5477 136.725 18.8406 136.525 19.0378L137.225 19.7512C137.694 19.2912 137.865 18.6077 137.67 17.981L136.715 18.2791Z" fill="#FE2B54"/>
<path fill-rule="evenodd" clip-rule="evenodd" d="M31.875 3.39297L30 5.24997L28.125 3.39297M28.125 3.39299C27.7878 3.06488 27.6634 2.57525 27.8031 2.126C27.9428 1.67674 28.3229 1.34397 28.7867 1.26491C29.2505 1.18585 29.7193 1.37389 30 1.75149C30.2818 1.37668 30.7497 1.19114 31.2118 1.27094C31.6739 1.35074 32.0524 1.68246 32.1922 2.13007C32.332 2.57769 32.2095 3.06589 31.875 3.39449" fill="#FE2B54"/>
<path d="M32.2268 3.74823C32.423 3.55391 32.4246 3.23733 32.2303 3.04113C32.0359 2.84493 31.7194 2.8434 31.5232 3.03772L32.2268 3.74823ZM30 5.24997L29.6482 5.60523C29.843 5.79822 30.157 5.79822 30.3518 5.60523L30 5.24997ZM28.4768 3.03772C28.2806 2.8434 27.9641 2.84493 27.7697 3.04113C27.5754 3.23733 27.577 3.55391 27.7732 3.74823L28.4768 3.03772ZM27.7763 3.75133C27.9742 3.94391 28.2907 3.93959 28.4833 3.74169C28.6759 3.54378 28.6716 3.22723 28.4737 3.03465L27.7763 3.75133ZM30 1.75149L29.5987 2.04975C29.6927 2.17628 29.8409 2.25105 29.9986 2.25149C30.1562 2.25192 30.3049 2.17798 30.3996 2.05198L30 1.75149ZM31.5246 3.03778C31.3276 3.23128 31.3248 3.54785 31.5183 3.74485C31.7118 3.94186 32.0283 3.9447 32.2254 3.7512L31.5246 3.03778ZM31.5232 3.03772L29.6482 4.89472L30.3518 5.60523L32.2268 3.74823L31.5232 3.03772ZM30.3518 4.89472L28.4768 3.03772L27.7732 3.74823L29.6482 5.60523L30.3518 4.89472ZM28.4737 3.03465C28.2714 2.83778 28.1967 2.544 28.2806 2.27445L27.3257 1.97754C27.1301 2.60649 27.3042 3.29198 27.7763 3.75133L28.4737 3.03465ZM28.2806 2.27445C28.3644 2.0049 28.5924 1.80524 28.8707 1.7578L28.7027 0.772023C28.0534 0.882709 27.5212 1.34859 27.3257 1.97754L28.2806 2.27445ZM28.8707 1.7578C29.149 1.71036 29.4303 1.82319 29.5987 2.04975L30.4013 1.45323C30.0084 0.924592 29.3519 0.661337 28.7027 0.772023L28.8707 1.7578ZM30.3996 2.05198C30.5687 1.82709 30.8494 1.71577 31.1267 1.76365L31.2969 0.778234C30.6499 0.666513 29.9949 0.926274 29.6004 1.451L30.3996 2.05198ZM31.1267 1.76365C31.404 1.81153 31.6311 2.01056 31.715 2.27913L32.6695 1.98102C32.4738 1.35436 31.9438 0.889956 31.2969 0.778234L31.1267 1.76365ZM31.715 2.27913C31.7988 2.5477 31.7254 2.84062 31.5246 3.03778L32.2254 3.7512C32.6937 3.29116 32.8652 2.60768 32.6695 1.98102L31.715 2.27913Z" fill="#FE2B54"/>
<path fill-rule="evenodd" clip-rule="evenodd" d="M6.5 31.524L4 34L1.5 31.524M1.49998 31.524C1.05042 31.0865 0.884561 30.4337 1.07081 29.8347C1.25706 29.2357 1.76387 28.792 2.38224 28.6865C3.00061 28.5811 3.62579 28.8319 3.99998 29.3353C4.37574 28.8356 4.99959 28.5882 5.61572 28.6946C6.23185 28.801 6.73659 29.2433 6.92298 29.8401C7.10937 30.4369 6.94605 31.0879 6.49998 31.526" fill="#FE2B54"/>
<path d="M6.85184 31.8792C7.04805 31.6849 7.04957 31.3683 6.85525 31.1721C6.66094 30.9759 6.34436 30.9744 6.14816 31.1687L6.85184 31.8792ZM4 34L3.64816 34.3552C3.84302 34.5482 4.15698 34.5482 4.35184 34.3552L4 34ZM1.85184 31.1687C1.65564 30.9744 1.33906 30.9759 1.14475 31.1721C0.950427 31.3683 0.951954 31.6849 1.14816 31.8792L1.85184 31.1687ZM1.15128 31.8823C1.34919 32.0749 1.66574 32.0706 1.85833 31.8727C2.05091 31.6748 2.04659 31.3582 1.84869 31.1656L1.15128 31.8823ZM3.99998 29.3353L3.59869 29.6336C3.69273 29.7601 3.84094 29.8349 3.99859 29.8353C4.15625 29.8358 4.30487 29.7618 4.39962 29.6358L3.99998 29.3353ZM6.14962 31.1693C5.95261 31.3628 5.94977 31.6793 6.14327 31.8763C6.33678 32.0734 6.65335 32.0762 6.85035 31.8827L6.14962 31.1693ZM6.14816 31.1687L3.64816 33.6447L4.35184 34.3552L6.85184 31.8792L6.14816 31.1687ZM4.35184 33.6447L1.85184 31.1687L1.14816 31.8792L3.64816 34.3552L4.35184 33.6447ZM1.84869 31.1656C1.53399 30.8594 1.41789 30.4024 1.54826 29.9831L0.593359 29.6862C0.351234 30.4649 0.566847 31.3136 1.15128 31.8823L1.84869 31.1656ZM1.54826 29.9831C1.67864 29.5638 2.0334 29.2532 2.46626 29.1794L2.29821 28.1937C1.49433 28.3307 0.835484 28.9075 0.593359 29.6862L1.54826 29.9831ZM2.46626 29.1794C2.89912 29.1056 3.33675 29.2812 3.59869 29.6336L4.40128 29.0371C3.91484 28.3826 3.1021 28.0566 2.29821 28.1937L2.46626 29.1794ZM4.39962 29.6358C4.66265 29.286 5.09934 29.1128 5.53063 29.1873L5.70081 28.2019C4.89984 28.0636 4.08884 28.3852 3.60035 29.0348L4.39962 29.6358ZM5.53063 29.1873C5.96192 29.2618 6.31524 29.5714 6.44572 29.9892L7.40025 29.691C7.15794 28.9152 6.50177 28.3402 5.70081 28.2019L5.53063 29.1873ZM6.44572 29.9892C6.57619 30.4069 6.46186 30.8626 6.14962 31.1693L6.85035 31.8827C7.43024 31.3131 7.64256 30.4669 7.40025 29.691L6.44572 29.9892Z" fill="#FE2B54"/>
<path fill-rule="evenodd" clip-rule="evenodd" d="M19.75 72.7859L16 76.4999L12.25 72.7859M12.25 72.786C11.5756 72.1298 11.3268 71.1505 11.6062 70.252C11.8856 69.3535 12.6458 68.6879 13.5734 68.5298C14.5009 68.3717 15.4387 68.7478 16 69.503C16.5636 68.7534 17.4994 68.3823 18.4236 68.5419C19.3478 68.7015 20.1049 69.3649 20.3845 70.2601C20.6641 71.1554 20.4191 72.1318 19.75 72.789" fill="#FE2B54"/>
<path d="M20.2778 73.3188C20.5721 73.0274 20.5744 72.5525 20.2829 72.2582C19.9914 71.9639 19.5165 71.9616 19.2222 72.2531L20.2778 73.3188ZM16 76.4999L15.4722 77.0328C15.7645 77.3223 16.2355 77.3223 16.5278 77.0328L16 76.4999ZM12.7778 72.2531C12.4835 71.9616 12.0086 71.9639 11.7171 72.2582C11.4256 72.5525 11.4279 73.0274 11.7222 73.3188L12.7778 72.2531ZM11.7269 73.3235C12.0238 73.6124 12.4986 73.6059 12.7875 73.309C13.0764 73.0122 13.0699 72.5373 12.773 72.2485L11.7269 73.3235ZM16 69.503L15.398 69.9504C15.5391 70.1402 15.7614 70.2523 15.9979 70.253C16.2344 70.2536 16.4573 70.1427 16.5994 69.9537L16 69.503ZM19.2244 72.2539C18.9289 72.5442 18.9247 73.019 19.2149 73.3145C19.5052 73.61 19.98 73.6143 20.2755 73.324L19.2244 72.2539ZM19.2222 72.2531L15.4722 75.9671L16.5278 77.0328L20.2778 73.3188L19.2222 72.2531ZM16.5278 75.9671L12.7778 72.2531L11.7222 73.3188L15.4722 77.0328L16.5278 75.9671ZM12.773 72.2485C12.301 71.7891 12.1268 71.1036 12.3224 70.4747L10.89 70.0293C10.5269 71.1974 10.8503 72.4704 11.7269 73.3235L12.773 72.2485ZM12.3224 70.4747C12.518 69.8457 13.0501 69.3798 13.6994 69.2692L13.4473 67.7905C12.2415 67.996 11.2532 68.8613 10.89 70.0293L12.3224 70.4747ZM13.6994 69.2692C14.3487 69.1585 15.0051 69.4217 15.398 69.9504L16.6019 69.0556C15.8723 68.0738 14.6531 67.5849 13.4473 67.7905L13.6994 69.2692ZM16.5994 69.9537C16.994 69.429 17.649 69.1692 18.2959 69.2809L18.5512 67.8028C17.3498 67.5953 16.1333 68.0778 15.4005 69.0522L16.5994 69.9537ZM18.2959 69.2809C18.9429 69.3927 19.4729 69.8571 19.6686 70.4837L21.1004 70.0366C20.7369 68.8728 19.7527 68.0103 18.5512 67.8028L18.2959 69.2809ZM19.6686 70.4837C19.8643 71.1104 19.6928 71.7939 19.2244 72.2539L20.2755 73.324C21.1454 72.4697 21.4638 71.2004 21.1004 70.0366L19.6686 70.4837Z" fill="#FE2B54"/>
<path d="M67.9412 46.62V65.6142C67.9412 66.9255 66.9404 67.9885 65.7059 67.9885H61.2353C60.0008 67.9885 59 66.9255 59 65.6142V48.9942C59 47.683 60.0008 46.62 61.2353 46.62H67.9412C72.8793 46.62 76.8824 42.368 76.8824 37.1228V34.7486C76.8824 32.126 78.8839 30 81.3529 30C83.822 30 85.8235 32.126 85.8235 34.7486V46.62H92.5294C94.9984 46.62 97 48.746 97 51.3685L94.7647 63.2399C94.1043 66.2321 92.2817 68.1681 90.2941 67.9885H74.6471C70.9435 67.9885 67.9412 64.7995 67.9412 60.8656" stroke="#622CEA" stroke-width="5" stroke-linecap="round" stroke-linejoin="round"/>
<path d="M33 89L39.4949 69.5257C27.8846 52.3634 32.3699 30.2161 49.9855 17.7254C67.6011 5.2347 92.9041 6.26008 109.167 20.1237C125.429 33.9872 127.626 56.4053 114.306 72.5573C100.985 88.7093 76.262 93.6045 56.4816 84.0066L33 89" stroke="#622CEA" stroke-width="5" stroke-linecap="round" stroke-linejoin="round"/>
</svg>
