<svg width="36" height="36" viewBox="0 0 36 36" fill="none" xmlns="http://www.w3.org/2000/svg">
<path d="M27 12C29.4853 12 31.5 14.0147 31.5 16.5C31.5 18.9853 29.4853 21 27 21" stroke="white" stroke-width="1.5" stroke-linecap="round" stroke-linejoin="round"/>
<path d="M15 12V28.5C15 29.3284 14.3284 30 13.5 30H12C11.1716 30 10.5 29.3284 10.5 28.5V21" stroke="white" stroke-width="1.5" stroke-linecap="round" stroke-linejoin="round"/>
<path d="M18 11.9999V11.9999L24.786 6.34494C25.1885 6.00965 25.7487 5.93752 26.2231 6.15991C26.6974 6.3823 27.0003 6.85905 27 7.38294V25.6169C27.0003 26.1408 26.6974 26.6176 26.2231 26.84C25.7487 27.0624 25.1885 26.9902 24.786 26.6549L18 20.9999H6C5.17157 20.9999 4.5 20.3284 4.5 19.4999V13.4999C4.5 12.6715 5.17157 11.9999 6 11.9999H18" stroke="white" stroke-width="1.5" stroke-linecap="round" stroke-linejoin="round"/>
</svg>
