<svg width="16" height="14" viewBox="0 0 16 14" fill="none" xmlns="http://www.w3.org/2000/svg">
<path d="M10.311 3.9751C11.2879 4.6892 11.8629 5.80991 11.8629 7.00008C11.8629 8.19025 11.2879 9.31096 10.311 10.0251" stroke="#27262A" stroke-linecap="round" stroke-linejoin="round"/>
<path d="M12.4059 1.70605C14.0465 2.99824 14.9999 4.94393 14.9999 6.99978C14.9999 9.05562 14.0465 11.0013 12.4059 12.2935" stroke="#27262A" stroke-linecap="round" stroke-linejoin="round"/>
<path d="M3.32776 9.26874H1.77592C1.34739 9.26874 1 8.93015 1 8.51249V5.48751C1 5.06985 1.34739 4.73126 1.77592 4.73126H3.32776L6.04348 1.32816C6.18361 1.06288 6.50124 0.936782 6.79166 1.03113C7.08208 1.12549 7.25856 1.41211 7.20736 1.70628V12.2937C7.25856 12.5879 7.08208 12.8745 6.79166 12.9689C6.50124 13.0632 6.18361 12.9371 6.04348 12.6718L3.32776 9.26874" stroke="#27262A" stroke-linecap="round" stroke-linejoin="round"/>
</svg>
