<svg width="155" height="94" viewBox="0 0 155 94" fill="none" xmlns="http://www.w3.org/2000/svg">
    <circle cx="131" cy="74" r="4.5" stroke="#0CC67C" />
    <circle cx="3" cy="34" r="2.5" stroke="#0CC67C" />
    <circle cx="126" cy="8" r="2.5" stroke="#0CC67C" />
    <circle cx="71" cy="54" r="40" fill="#D9D9D9" fill-opacity="0.7" />
    <circle cx="76" cy="48" r="40" fill="#0CC67C" />
    <path d="M62.6667 48L71.5556 56.8889L89.3333 39.1111" stroke="white" stroke-width="6"
        stroke-linecap="round" stroke-linejoin="round" />
    <path
        d="M145.892 45.7137L144.761 46.0095L144.61 43.272L143.076 43.6734L143.001 42.4986L144.549 42.0938L144.413 39.7624L142.805 40.1828L142.74 39.0129L144.353 38.5908L144.202 35.9595L145.333 35.6636L145.478 38.2967L147.475 37.7743L147.33 35.1412L148.468 34.8436L148.612 37.4767L150.226 37.0546L150.305 38.221L148.672 38.6483L148.801 40.9814L150.481 40.542L150.562 41.7151L148.869 42.1579L149.02 44.8954L147.889 45.1912L147.738 42.4538L145.741 42.9762L145.892 45.7137ZM145.642 41.8432L147.706 41.3034L147.573 38.9073L145.51 39.4471L145.642 41.8432Z"
        fill="#0CC67C" />
    <path
        d="M16.0492 74.6137L15.0798 74.8673L14.9506 72.5209L13.6355 72.8649L13.5719 71.8579L14.8984 71.511L14.7814 69.5126L13.404 69.8729L13.3476 68.8702L14.7307 68.5084L14.601 66.2529L15.5704 65.9994L15.6944 68.2563L17.4063 67.8085L17.2823 65.5516L18.2573 65.2965L18.3813 67.5534L19.7645 67.1916L19.8322 68.1914L18.4321 68.5577L18.5433 70.5575L19.9832 70.1809L20.0524 71.1863L18.6012 71.5659L18.7305 73.9123L17.7611 74.1659L17.6319 71.8195L15.9199 72.2673L16.0492 74.6137ZM15.8355 71.2961L17.6041 70.8335L17.4908 68.7797L15.7222 69.2423L15.8355 71.2961Z"
        fill="#0CC67C" />
    <path
        d="M22.7961 12.1401L21.8268 12.3936L21.6975 10.0472L20.3824 10.3912L20.3189 9.38431L21.6453 9.03733L21.5284 7.03898L20.1509 7.39931L20.0945 6.39656L21.4777 6.03475L21.348 3.77931L22.3173 3.52575L22.4413 5.78267L24.1533 5.33486L24.0292 3.07794L25.0043 2.82289L25.1283 5.07982L26.5114 4.71801L26.5791 5.71779L25.179 6.08405L25.2903 8.08387L26.7301 7.70724L26.7993 8.71269L25.3481 9.09229L25.4774 11.4387L24.508 11.6923L24.3788 9.34585L22.6669 9.79367L22.7961 12.1401ZM22.5824 8.82249L24.351 8.35985L24.2377 6.30604L22.4691 6.76868L22.5824 8.82249Z"
        fill="#0CC67C" />
</svg>
