<svg width="24" height="24" viewBox="0 0 24 24" fill="none" xmlns="http://www.w3.org/2000/svg">
<circle cx="7" cy="17" r="2" stroke="#27262A" stroke-linecap="round" stroke-linejoin="round"/>
<circle cx="17" cy="17" r="2" stroke="#27262A" stroke-linecap="round" stroke-linejoin="round"/>
<path d="M5 17.5C5.27614 17.5 5.5 17.2761 5.5 17C5.5 16.7239 5.27614 16.5 5 16.5V17.5ZM3 17H2.5C2.5 17.2761 2.72386 17.5 3 17.5V17ZM13 5H13.5C13.5 4.72386 13.2761 4.5 13 4.5V5ZM12.5 17C12.5 17.2761 12.7239 17.5 13 17.5C13.2761 17.5 13.5 17.2761 13.5 17H12.5ZM9 16.5C8.72386 16.5 8.5 16.7239 8.5 17C8.5 17.2761 8.72386 17.5 9 17.5V16.5ZM15 17.5C15.2761 17.5 15.5 17.2761 15.5 17C15.5 16.7239 15.2761 16.5 15 16.5V17.5ZM19 16.5C18.7239 16.5 18.5 16.7239 18.5 17C18.5 17.2761 18.7239 17.5 19 17.5V16.5ZM21 17V17.5C21.2761 17.5 21.5 17.2761 21.5 17H21ZM21 11H21.5C21.5 10.7239 21.2761 10.5 21 10.5V11ZM13 10.5C12.7239 10.5 12.5 10.7239 12.5 11C12.5 11.2761 12.7239 11.5 13 11.5V10.5ZM13 5.5C12.7239 5.5 12.5 5.72386 12.5 6C12.5 6.27614 12.7239 6.5 13 6.5V5.5ZM18 6L18.4287 5.74275C18.3384 5.59215 18.1756 5.5 18 5.5V6ZM20.5713 11.2572C20.7133 11.494 21.0205 11.5708 21.2572 11.4287C21.494 11.2867 21.5708 10.9795 21.4287 10.7428L20.5713 11.2572ZM5 16.5H3V17.5H5V16.5ZM3.5 17V6H2.5V17H3.5ZM3.5 6C3.5 5.72386 3.72386 5.5 4 5.5V4.5C3.17157 4.5 2.5 5.17157 2.5 6H3.5ZM4 5.5H13V4.5H4V5.5ZM12.5 5V17H13.5V5H12.5ZM9 17.5H15V16.5H9V17.5ZM19 17.5H21V16.5H19V17.5ZM21.5 17V11H20.5V17H21.5ZM21 10.5H13V11.5H21V10.5ZM13 6.5H18V5.5H13V6.5ZM17.5713 6.25725L20.5713 11.2572L21.4287 10.7428L18.4287 5.74275L17.5713 6.25725Z" fill="#27262A"/>
</svg>
