<svg width="347" height="183" viewBox="0 0 347 183" fill="none" xmlns="http://www.w3.org/2000/svg">
<g filter="url(#filter0_d_99_83)">
<rect x="101" y="4" width="130" height="167" rx="6" fill="white"/>
</g>
<rect x="111" y="14" width="56" height="56" rx="6" fill="#F5F6F8"/>
<rect x="110.25" y="91.25" width="31.5" height="31.5" rx="1.75" fill="#F5F6F8" stroke="#EBEBEB" stroke-width="0.5"/>
<rect x="110.25" y="91.25" width="31.5" height="31.5" rx="1.75" fill="#F5F6F8" stroke="#EBEBEB" stroke-width="0.5"/>
<path d="M127.999 98.3333H128.006" stroke="#CECECE" stroke-width="0.5" stroke-linecap="round" stroke-linejoin="round"/>
<rect x="120.667" y="95.6667" width="10.6667" height="10.6667" rx="1" stroke="#CECECE" stroke-width="0.5" stroke-linecap="round" stroke-linejoin="round"/>
<path d="M120.667 103L123.333 100.333C123.952 99.7379 124.715 99.7379 125.333 100.333L128.667 103.667" stroke="#CECECE" stroke-width="0.5" stroke-linecap="round" stroke-linejoin="round"/>
<path d="M127.333 102.333L128 101.667C128.619 101.071 129.381 101.071 130 101.667L131.333 103" stroke="#CECECE" stroke-width="0.5" stroke-linecap="round" stroke-linejoin="round"/>
<path d="M110.25 111.25H141.75V121C141.75 121.966 140.966 122.75 140 122.75H112C111.034 122.75 110.25 121.966 110.25 121V111.25Z" fill="white" stroke="#EBEBEB" stroke-width="0.5"/>
<path d="M118.813 119.1C117.601 119.1 116.874 118.238 116.874 116.888V116.882C116.874 115.525 117.618 114.673 118.813 114.673C120.015 114.673 120.753 115.528 120.753 116.882V116.888C120.753 118.235 120.021 119.1 118.813 119.1ZM118.813 118.613C119.681 118.613 120.214 117.934 120.214 116.888V116.882C120.214 115.827 119.678 115.159 118.813 115.159C117.952 115.159 117.413 115.827 117.413 116.882V116.888C117.413 117.934 117.935 118.613 118.813 118.613ZM121.603 120.055V115.842H122.112V116.346H122.159C122.353 115.994 122.704 115.786 123.144 115.786C123.943 115.786 124.468 116.434 124.468 117.418V117.424C124.468 118.414 123.946 119.056 123.144 119.056C122.71 119.056 122.332 118.839 122.159 118.502H122.112V120.055H121.603ZM123.026 118.604C123.604 118.604 123.946 118.159 123.946 117.424V117.418C123.946 116.683 123.604 116.237 123.026 116.237C122.452 116.237 122.101 116.688 122.101 117.418V117.424C122.101 118.153 122.452 118.604 123.026 118.604ZM126.387 119.023C125.736 119.023 125.464 118.783 125.464 118.18V116.264H124.966V115.842H125.464V115.024H125.991V115.842H126.683V116.264H125.991V118.051C125.991 118.423 126.12 118.572 126.448 118.572C126.539 118.572 126.589 118.569 126.683 118.561V118.994C126.583 119.012 126.486 119.023 126.387 119.023ZM127.714 115.232C127.521 115.232 127.362 115.074 127.362 114.881C127.362 114.688 127.521 114.529 127.714 114.529C127.907 114.529 128.065 114.688 128.065 114.881C128.065 115.074 127.907 115.232 127.714 115.232ZM127.456 119V115.842H127.966V119H127.456ZM130.225 119.056C129.325 119.056 128.769 118.435 128.769 117.424V117.418C128.769 116.404 129.325 115.786 130.225 115.786C131.124 115.786 131.681 116.404 131.681 117.418V117.424C131.681 118.435 131.124 119.056 130.225 119.056ZM130.225 118.604C130.822 118.604 131.159 118.168 131.159 117.424V117.418C131.159 116.671 130.822 116.237 130.225 116.237C129.627 116.237 129.29 116.671 129.29 117.418V117.424C129.29 118.168 129.627 118.604 130.225 118.604ZM132.472 119V115.842H132.981V116.316H133.028C133.187 115.982 133.482 115.786 133.948 115.786C134.657 115.786 135.053 116.205 135.053 116.955V119H134.543V117.078C134.543 116.51 134.309 116.237 133.805 116.237C133.301 116.237 132.981 116.577 132.981 117.131V119H132.472Z" fill="#CECECE"/>
<rect x="110.25" y="149.25" width="31.5" height="11.5" rx="1.75" fill="white" stroke="#EBEBEB" stroke-width="0.5"/>
<path d="M118.813 157.1C117.601 157.1 116.874 156.238 116.874 154.888V154.882C116.874 153.525 117.618 152.673 118.813 152.673C120.015 152.673 120.753 153.528 120.753 154.882V154.888C120.753 156.235 120.021 157.1 118.813 157.1ZM118.813 156.613C119.681 156.613 120.214 155.934 120.214 154.888V154.882C120.214 153.827 119.678 153.159 118.813 153.159C117.952 153.159 117.413 153.827 117.413 154.882V154.888C117.413 155.934 117.935 156.613 118.813 156.613ZM121.603 158.055V153.842H122.112V154.346H122.159C122.353 153.994 122.704 153.786 123.144 153.786C123.943 153.786 124.468 154.434 124.468 155.418V155.424C124.468 156.414 123.946 157.056 123.144 157.056C122.71 157.056 122.332 156.839 122.159 156.502H122.112V158.055H121.603ZM123.026 156.604C123.604 156.604 123.946 156.159 123.946 155.424V155.418C123.946 154.683 123.604 154.237 123.026 154.237C122.452 154.237 122.101 154.688 122.101 155.418V155.424C122.101 156.153 122.452 156.604 123.026 156.604ZM126.387 157.023C125.736 157.023 125.464 156.783 125.464 156.18V154.264H124.966V153.842H125.464V153.024H125.991V153.842H126.683V154.264H125.991V156.051C125.991 156.423 126.12 156.572 126.448 156.572C126.539 156.572 126.589 156.569 126.683 156.561V156.994C126.583 157.012 126.486 157.023 126.387 157.023ZM127.714 153.232C127.521 153.232 127.362 153.074 127.362 152.881C127.362 152.688 127.521 152.529 127.714 152.529C127.907 152.529 128.065 152.688 128.065 152.881C128.065 153.074 127.907 153.232 127.714 153.232ZM127.456 157V153.842H127.966V157H127.456ZM130.225 157.056C129.325 157.056 128.769 156.435 128.769 155.424V155.418C128.769 154.404 129.325 153.786 130.225 153.786C131.124 153.786 131.681 154.404 131.681 155.418V155.424C131.681 156.435 131.124 157.056 130.225 157.056ZM130.225 156.604C130.822 156.604 131.159 156.168 131.159 155.424V155.418C131.159 154.671 130.822 154.237 130.225 154.237C129.627 154.237 129.29 154.671 129.29 155.418V155.424C129.29 156.168 129.627 156.604 130.225 156.604ZM132.472 157V153.842H132.981V154.316H133.028C133.187 153.982 133.482 153.786 133.948 153.786C134.657 153.786 135.053 154.205 135.053 154.955V157H134.543V155.078C134.543 154.51 134.309 154.237 133.805 154.237C133.301 154.237 132.981 154.577 132.981 155.131V157H132.472Z" fill="#CECECE"/>
<rect x="147.25" y="149.25" width="31.5" height="11.5" rx="1.75" fill="white" stroke="#EBEBEB" stroke-width="0.5"/>
<path d="M155.813 157.1C154.601 157.1 153.874 156.238 153.874 154.888V154.882C153.874 153.525 154.618 152.673 155.813 152.673C157.015 152.673 157.753 153.528 157.753 154.882V154.888C157.753 156.235 157.021 157.1 155.813 157.1ZM155.813 156.613C156.681 156.613 157.214 155.934 157.214 154.888V154.882C157.214 153.827 156.678 153.159 155.813 153.159C154.952 153.159 154.413 153.827 154.413 154.882V154.888C154.413 155.934 154.935 156.613 155.813 156.613ZM158.603 158.055V153.842H159.112V154.346H159.159C159.353 153.994 159.704 153.786 160.144 153.786C160.943 153.786 161.468 154.434 161.468 155.418V155.424C161.468 156.414 160.946 157.056 160.144 157.056C159.71 157.056 159.332 156.839 159.159 156.502H159.112V158.055H158.603ZM160.026 156.604C160.604 156.604 160.946 156.159 160.946 155.424V155.418C160.946 154.683 160.604 154.237 160.026 154.237C159.452 154.237 159.101 154.688 159.101 155.418V155.424C159.101 156.153 159.452 156.604 160.026 156.604ZM163.387 157.023C162.736 157.023 162.464 156.783 162.464 156.18V154.264H161.966V153.842H162.464V153.024H162.991V153.842H163.683V154.264H162.991V156.051C162.991 156.423 163.12 156.572 163.448 156.572C163.539 156.572 163.589 156.569 163.683 156.561V156.994C163.583 157.012 163.486 157.023 163.387 157.023ZM164.714 153.232C164.521 153.232 164.362 153.074 164.362 152.881C164.362 152.688 164.521 152.529 164.714 152.529C164.907 152.529 165.065 152.688 165.065 152.881C165.065 153.074 164.907 153.232 164.714 153.232ZM164.456 157V153.842H164.966V157H164.456ZM167.225 157.056C166.325 157.056 165.769 156.435 165.769 155.424V155.418C165.769 154.404 166.325 153.786 167.225 153.786C168.124 153.786 168.681 154.404 168.681 155.418V155.424C168.681 156.435 168.124 157.056 167.225 157.056ZM167.225 156.604C167.822 156.604 168.159 156.168 168.159 155.424V155.418C168.159 154.671 167.822 154.237 167.225 154.237C166.627 154.237 166.29 154.671 166.29 155.418V155.424C166.29 156.168 166.627 156.604 167.225 156.604ZM169.472 157V153.842H169.981V154.316H170.028C170.187 153.982 170.482 153.786 170.948 153.786C171.657 153.786 172.053 154.205 172.053 154.955V157H171.543V155.078C171.543 154.51 171.309 154.237 170.805 154.237C170.301 154.237 169.981 154.577 169.981 155.131V157H169.472Z" fill="#CECECE"/>
<rect x="184.25" y="149.25" width="31.5" height="11.5" rx="1.75" fill="white" stroke="#EBEBEB" stroke-width="0.5"/>
<path d="M192.813 157.1C191.601 157.1 190.874 156.238 190.874 154.888V154.882C190.874 153.525 191.618 152.673 192.813 152.673C194.015 152.673 194.753 153.528 194.753 154.882V154.888C194.753 156.235 194.021 157.1 192.813 157.1ZM192.813 156.613C193.681 156.613 194.214 155.934 194.214 154.888V154.882C194.214 153.827 193.678 153.159 192.813 153.159C191.952 153.159 191.413 153.827 191.413 154.882V154.888C191.413 155.934 191.935 156.613 192.813 156.613ZM195.603 158.055V153.842H196.112V154.346H196.159C196.353 153.994 196.704 153.786 197.144 153.786C197.943 153.786 198.468 154.434 198.468 155.418V155.424C198.468 156.414 197.946 157.056 197.144 157.056C196.71 157.056 196.332 156.839 196.159 156.502H196.112V158.055H195.603ZM197.026 156.604C197.604 156.604 197.946 156.159 197.946 155.424V155.418C197.946 154.683 197.604 154.237 197.026 154.237C196.452 154.237 196.101 154.688 196.101 155.418V155.424C196.101 156.153 196.452 156.604 197.026 156.604ZM200.387 157.023C199.736 157.023 199.464 156.783 199.464 156.18V154.264H198.966V153.842H199.464V153.024H199.991V153.842H200.683V154.264H199.991V156.051C199.991 156.423 200.12 156.572 200.448 156.572C200.539 156.572 200.589 156.569 200.683 156.561V156.994C200.583 157.012 200.486 157.023 200.387 157.023ZM201.714 153.232C201.521 153.232 201.362 153.074 201.362 152.881C201.362 152.688 201.521 152.529 201.714 152.529C201.907 152.529 202.065 152.688 202.065 152.881C202.065 153.074 201.907 153.232 201.714 153.232ZM201.456 157V153.842H201.966V157H201.456ZM204.225 157.056C203.325 157.056 202.769 156.435 202.769 155.424V155.418C202.769 154.404 203.325 153.786 204.225 153.786C205.124 153.786 205.681 154.404 205.681 155.418V155.424C205.681 156.435 205.124 157.056 204.225 157.056ZM204.225 156.604C204.822 156.604 205.159 156.168 205.159 155.424V155.418C205.159 154.671 204.822 154.237 204.225 154.237C203.627 154.237 203.29 154.671 203.29 155.418V155.424C203.29 156.168 203.627 156.604 204.225 156.604ZM206.472 157V153.842H206.981V154.316H207.028C207.187 153.982 207.482 153.786 207.948 153.786C208.657 153.786 209.053 154.205 209.053 154.955V157H208.543V155.078C208.543 154.51 208.309 154.237 207.805 154.237C207.301 154.237 206.981 154.577 206.981 155.131V157H206.472Z" fill="#CECECE"/>
<rect x="147.25" y="91.25" width="31.5" height="31.5" rx="1.75" fill="#F5F6F8" stroke="#EBEBEB" stroke-width="0.5"/>
<path d="M164.999 98.3333H165.006" stroke="#CECECE" stroke-width="0.5" stroke-linecap="round" stroke-linejoin="round"/>
<rect x="157.667" y="95.6667" width="10.6667" height="10.6667" rx="1" stroke="#CECECE" stroke-width="0.5" stroke-linecap="round" stroke-linejoin="round"/>
<path d="M157.667 103L160.333 100.333C160.952 99.7379 161.715 99.7379 162.333 100.333L165.667 103.667" stroke="#CECECE" stroke-width="0.5" stroke-linecap="round" stroke-linejoin="round"/>
<path d="M164.333 102.333L165 101.667C165.619 101.071 166.381 101.071 167 101.667L168.333 103" stroke="#CECECE" stroke-width="0.5" stroke-linecap="round" stroke-linejoin="round"/>
<path d="M147.25 111.25H178.75V121C178.75 121.966 177.966 122.75 177 122.75H149C148.034 122.75 147.25 121.966 147.25 121V111.25Z" fill="white" stroke="#EBEBEB" stroke-width="0.5"/>
<path d="M155.813 119.1C154.601 119.1 153.874 118.238 153.874 116.888V116.882C153.874 115.525 154.618 114.673 155.813 114.673C157.015 114.673 157.753 115.528 157.753 116.882V116.888C157.753 118.235 157.021 119.1 155.813 119.1ZM155.813 118.613C156.681 118.613 157.214 117.934 157.214 116.888V116.882C157.214 115.827 156.678 115.159 155.813 115.159C154.952 115.159 154.413 115.827 154.413 116.882V116.888C154.413 117.934 154.935 118.613 155.813 118.613ZM158.603 120.055V115.842H159.112V116.346H159.159C159.353 115.994 159.704 115.786 160.144 115.786C160.943 115.786 161.468 116.434 161.468 117.418V117.424C161.468 118.414 160.946 119.056 160.144 119.056C159.71 119.056 159.332 118.839 159.159 118.502H159.112V120.055H158.603ZM160.026 118.604C160.604 118.604 160.946 118.159 160.946 117.424V117.418C160.946 116.683 160.604 116.237 160.026 116.237C159.452 116.237 159.101 116.688 159.101 117.418V117.424C159.101 118.153 159.452 118.604 160.026 118.604ZM163.387 119.023C162.736 119.023 162.464 118.783 162.464 118.18V116.264H161.966V115.842H162.464V115.024H162.991V115.842H163.683V116.264H162.991V118.051C162.991 118.423 163.12 118.572 163.448 118.572C163.539 118.572 163.589 118.569 163.683 118.561V118.994C163.583 119.012 163.486 119.023 163.387 119.023ZM164.714 115.232C164.521 115.232 164.362 115.074 164.362 114.881C164.362 114.688 164.521 114.529 164.714 114.529C164.907 114.529 165.065 114.688 165.065 114.881C165.065 115.074 164.907 115.232 164.714 115.232ZM164.456 119V115.842H164.966V119H164.456ZM167.225 119.056C166.325 119.056 165.769 118.435 165.769 117.424V117.418C165.769 116.404 166.325 115.786 167.225 115.786C168.124 115.786 168.681 116.404 168.681 117.418V117.424C168.681 118.435 168.124 119.056 167.225 119.056ZM167.225 118.604C167.822 118.604 168.159 118.168 168.159 117.424V117.418C168.159 116.671 167.822 116.237 167.225 116.237C166.627 116.237 166.29 116.671 166.29 117.418V117.424C166.29 118.168 166.627 118.604 167.225 118.604ZM169.472 119V115.842H169.981V116.316H170.028C170.187 115.982 170.482 115.786 170.948 115.786C171.657 115.786 172.053 116.205 172.053 116.955V119H171.543V117.078C171.543 116.51 171.309 116.237 170.805 116.237C170.301 116.237 169.981 116.577 169.981 117.131V119H169.472Z" fill="#CECECE"/>
<rect x="184.25" y="91.25" width="31.5" height="31.5" rx="1.75" fill="#F5F6F8" stroke="#EBEBEB" stroke-width="0.5"/>
<path d="M201.999 98.3333H202.006" stroke="#CECECE" stroke-width="0.5" stroke-linecap="round" stroke-linejoin="round"/>
<rect x="194.667" y="95.6667" width="10.6667" height="10.6667" rx="1" stroke="#CECECE" stroke-width="0.5" stroke-linecap="round" stroke-linejoin="round"/>
<path d="M194.667 103L197.333 100.333C197.952 99.7379 198.715 99.7379 199.333 100.333L202.667 103.667" stroke="#CECECE" stroke-width="0.5" stroke-linecap="round" stroke-linejoin="round"/>
<path d="M201.333 102.333L202 101.667C202.619 101.071 203.381 101.071 204 101.667L205.333 103" stroke="#CECECE" stroke-width="0.5" stroke-linecap="round" stroke-linejoin="round"/>
<path d="M184.25 111.25H215.75V121C215.75 121.966 214.966 122.75 214 122.75H186C185.034 122.75 184.25 121.966 184.25 121V111.25Z" fill="white" stroke="#EBEBEB" stroke-width="0.5"/>
<path d="M192.813 119.1C191.601 119.1 190.874 118.238 190.874 116.888V116.882C190.874 115.525 191.618 114.673 192.813 114.673C194.015 114.673 194.753 115.528 194.753 116.882V116.888C194.753 118.235 194.021 119.1 192.813 119.1ZM192.813 118.613C193.681 118.613 194.214 117.934 194.214 116.888V116.882C194.214 115.827 193.678 115.159 192.813 115.159C191.952 115.159 191.413 115.827 191.413 116.882V116.888C191.413 117.934 191.935 118.613 192.813 118.613ZM195.603 120.055V115.842H196.112V116.346H196.159C196.353 115.994 196.704 115.786 197.144 115.786C197.943 115.786 198.468 116.434 198.468 117.418V117.424C198.468 118.414 197.946 119.056 197.144 119.056C196.71 119.056 196.332 118.839 196.159 118.502H196.112V120.055H195.603ZM197.026 118.604C197.604 118.604 197.946 118.159 197.946 117.424V117.418C197.946 116.683 197.604 116.237 197.026 116.237C196.452 116.237 196.101 116.688 196.101 117.418V117.424C196.101 118.153 196.452 118.604 197.026 118.604ZM200.387 119.023C199.736 119.023 199.464 118.783 199.464 118.18V116.264H198.966V115.842H199.464V115.024H199.991V115.842H200.683V116.264H199.991V118.051C199.991 118.423 200.12 118.572 200.448 118.572C200.539 118.572 200.589 118.569 200.683 118.561V118.994C200.583 119.012 200.486 119.023 200.387 119.023ZM201.714 115.232C201.521 115.232 201.362 115.074 201.362 114.881C201.362 114.688 201.521 114.529 201.714 114.529C201.907 114.529 202.065 114.688 202.065 114.881C202.065 115.074 201.907 115.232 201.714 115.232ZM201.456 119V115.842H201.966V119H201.456ZM204.225 119.056C203.325 119.056 202.769 118.435 202.769 117.424V117.418C202.769 116.404 203.325 115.786 204.225 115.786C205.124 115.786 205.681 116.404 205.681 117.418V117.424C205.681 118.435 205.124 119.056 204.225 119.056ZM204.225 118.604C204.822 118.604 205.159 118.168 205.159 117.424V117.418C205.159 116.671 204.822 116.237 204.225 116.237C203.627 116.237 203.29 116.671 203.29 117.418V117.424C203.29 118.168 203.627 118.604 204.225 118.604ZM206.472 119V115.842H206.981V116.316H207.028C207.187 115.982 207.482 115.786 207.948 115.786C208.657 115.786 209.053 116.205 209.053 116.955V119H208.543V117.078C208.543 116.51 208.309 116.237 207.805 116.237C207.301 116.237 206.981 116.577 206.981 117.131V119H206.472Z" fill="#CECECE"/>
<rect x="177" y="36" width="45" height="6" rx="3" fill="#F5F6F8"/>
<rect x="177" y="46" width="45" height="6" rx="3" fill="#F5F6F8"/>
<rect x="177" y="56" width="45" height="14" rx="2" fill="#CECECE"/>
<path d="M178.532 29.9707V28.8496C176.611 28.7402 175.217 27.7695 175.162 26.0674L175.169 26.0605H176.994V26.0674C177.11 26.7646 177.596 27.2158 178.532 27.3047V24.8506L178.074 24.7412C176.29 24.3379 175.312 23.5381 175.312 22.0684V22.0547C175.312 20.4277 176.652 19.4023 178.532 19.293V18.1445H179.318V19.293C181.212 19.4365 182.449 20.5166 182.518 22.123L182.511 22.1299L180.699 22.1367L180.692 22.123C180.597 21.3916 180.084 20.9541 179.318 20.8379V23.2168L179.804 23.3193C181.67 23.7432 182.647 24.4951 182.647 25.9922V26.0059C182.647 27.708 181.26 28.7129 179.318 28.8428V29.9707H178.532ZM177.22 21.918C177.22 22.4443 177.609 22.7861 178.532 23.0322V20.8311C177.671 20.9268 177.22 21.3506 177.22 21.9043V21.918ZM180.74 26.1973C180.74 25.6025 180.378 25.2949 179.318 25.0283V27.3115C180.269 27.2227 180.74 26.8262 180.74 26.2109V26.1973ZM188.376 29.2529C185.942 29.2529 184.459 27.2568 184.459 24.0713V24.0576C184.459 20.8652 185.942 18.8828 188.376 18.8828C190.816 18.8828 192.293 20.8652 192.293 24.0576V24.0713C192.293 27.2568 190.816 29.2529 188.376 29.2529ZM188.376 27.6191C189.545 27.6191 190.208 26.2998 190.208 24.0713V24.0576C190.208 21.8223 189.545 20.5166 188.376 20.5166C187.214 20.5166 186.551 21.8223 186.551 24.0576V24.0713C186.551 26.2998 187.214 27.6191 188.376 27.6191ZM194.877 29.1709C194.18 29.1709 193.674 28.6582 193.674 27.9814C193.674 27.3047 194.18 26.7988 194.877 26.7988C195.581 26.7988 196.08 27.3047 196.08 27.9814C196.08 28.6582 195.581 29.1709 194.877 29.1709ZM201.446 29.2529C199.013 29.2529 197.529 27.2568 197.529 24.0713V24.0576C197.529 20.8652 199.013 18.8828 201.446 18.8828C203.887 18.8828 205.363 20.8652 205.363 24.0576V24.0713C205.363 27.2568 203.887 29.2529 201.446 29.2529ZM201.446 27.6191C202.615 27.6191 203.278 26.2998 203.278 24.0713V24.0576C203.278 21.8223 202.615 20.5166 201.446 20.5166C200.284 20.5166 199.621 21.8223 199.621 24.0576V24.0713C199.621 26.2998 200.284 27.6191 201.446 27.6191ZM211.03 29.2529C208.597 29.2529 207.113 27.2568 207.113 24.0713V24.0576C207.113 20.8652 208.597 18.8828 211.03 18.8828C213.471 18.8828 214.947 20.8652 214.947 24.0576V24.0713C214.947 27.2568 213.471 29.2529 211.03 29.2529ZM211.03 27.6191C212.199 27.6191 212.862 26.2998 212.862 24.0713V24.0576C212.862 21.8223 212.199 20.5166 211.03 20.5166C209.868 20.5166 209.205 21.8223 209.205 24.0576V24.0713C209.205 26.2998 209.868 27.6191 211.03 27.6191Z" fill="#CECECE"/>
<path d="M112.781 86L110.703 80.3633H111.441L113.098 85.0898H113.16L114.816 80.3633H115.555L113.477 86H112.781ZM117.223 86.0742C116.422 86.0742 115.816 85.5898 115.816 84.8242V84.8164C115.816 84.0664 116.371 83.6328 117.352 83.5742L118.559 83.5V83.1172C118.559 82.5977 118.242 82.3164 117.613 82.3164C117.109 82.3164 116.777 82.5039 116.668 82.832L116.664 82.8438H115.984L115.988 82.8203C116.098 82.1602 116.738 81.7148 117.637 81.7148C118.664 81.7148 119.238 82.2422 119.238 83.1172V86H118.559V85.3789H118.496C118.23 85.8281 117.789 86.0742 117.223 86.0742ZM116.512 84.8086C116.512 85.2344 116.875 85.4844 117.363 85.4844C118.055 85.4844 118.559 85.0312 118.559 84.4297V84.0469L117.434 84.1172C116.793 84.1562 116.512 84.3828 116.512 84.8008V84.8086ZM120.48 86V81.7891H121.16V82.4141H121.223C121.383 81.9727 121.777 81.7148 122.348 81.7148C122.477 81.7148 122.621 81.7305 122.688 81.7422V82.4023C122.547 82.3789 122.418 82.3633 122.27 82.3633C121.621 82.3633 121.16 82.7734 121.16 83.3906V86H120.48ZM123.887 80.9766C123.629 80.9766 123.418 80.7656 123.418 80.5078C123.418 80.25 123.629 80.0391 123.887 80.0391C124.145 80.0391 124.355 80.25 124.355 80.5078C124.355 80.7656 124.145 80.9766 123.887 80.9766ZM123.543 86V81.7891H124.223V86H123.543ZM126.66 86.0742C125.859 86.0742 125.254 85.5898 125.254 84.8242V84.8164C125.254 84.0664 125.809 83.6328 126.789 83.5742L127.996 83.5V83.1172C127.996 82.5977 127.68 82.3164 127.051 82.3164C126.547 82.3164 126.215 82.5039 126.105 82.832L126.102 82.8438H125.422L125.426 82.8203C125.535 82.1602 126.176 81.7148 127.074 81.7148C128.102 81.7148 128.676 82.2422 128.676 83.1172V86H127.996V85.3789H127.934C127.668 85.8281 127.227 86.0742 126.66 86.0742ZM125.949 84.8086C125.949 85.2344 126.312 85.4844 126.801 85.4844C127.492 85.4844 127.996 85.0312 127.996 84.4297V84.0469L126.871 84.1172C126.23 84.1562 125.949 84.3828 125.949 84.8008V84.8086ZM131.414 86.0312C130.547 86.0312 130.184 85.7109 130.184 84.9062V82.3516H129.52V81.7891H130.184V80.6992H130.887V81.7891H131.809V82.3516H130.887V84.7344C130.887 85.2305 131.059 85.4297 131.496 85.4297C131.617 85.4297 131.684 85.4258 131.809 85.4141V85.9922C131.676 86.0156 131.547 86.0312 131.414 86.0312ZM133.184 80.9766C132.926 80.9766 132.715 80.7656 132.715 80.5078C132.715 80.25 132.926 80.0391 133.184 80.0391C133.441 80.0391 133.652 80.25 133.652 80.5078C133.652 80.7656 133.441 80.9766 133.184 80.9766ZM132.84 86V81.7891H133.52V86H132.84ZM136.531 86.0742C135.332 86.0742 134.59 85.2461 134.59 83.8984V83.8906C134.59 82.5391 135.332 81.7148 136.531 81.7148C137.73 81.7148 138.473 82.5391 138.473 83.8906V83.8984C138.473 85.2461 137.73 86.0742 136.531 86.0742ZM136.531 85.4727C137.328 85.4727 137.777 84.8906 137.777 83.8984V83.8906C137.777 82.8945 137.328 82.3164 136.531 82.3164C135.734 82.3164 135.285 82.8945 135.285 83.8906V83.8984C135.285 84.8906 135.734 85.4727 136.531 85.4727ZM139.527 86V81.7891H140.207V82.4219H140.27C140.48 81.9766 140.875 81.7148 141.496 81.7148C142.441 81.7148 142.969 82.2734 142.969 83.2734V86H142.289V83.4375C142.289 82.6797 141.977 82.3164 141.305 82.3164C140.633 82.3164 140.207 82.7695 140.207 83.5078V86H139.527Z" fill="#CECECE"/>
<path d="M112.781 144L110.703 138.363H111.441L113.098 143.09H113.16L114.816 138.363H115.555L113.477 144H112.781ZM117.223 144.074C116.422 144.074 115.816 143.59 115.816 142.824V142.816C115.816 142.066 116.371 141.633 117.352 141.574L118.559 141.5V141.117C118.559 140.598 118.242 140.316 117.613 140.316C117.109 140.316 116.777 140.504 116.668 140.832L116.664 140.844H115.984L115.988 140.82C116.098 140.16 116.738 139.715 117.637 139.715C118.664 139.715 119.238 140.242 119.238 141.117V144H118.559V143.379H118.496C118.23 143.828 117.789 144.074 117.223 144.074ZM116.512 142.809C116.512 143.234 116.875 143.484 117.363 143.484C118.055 143.484 118.559 143.031 118.559 142.43V142.047L117.434 142.117C116.793 142.156 116.512 142.383 116.512 142.801V142.809ZM120.48 144V139.789H121.16V140.414H121.223C121.383 139.973 121.777 139.715 122.348 139.715C122.477 139.715 122.621 139.73 122.688 139.742V140.402C122.547 140.379 122.418 140.363 122.27 140.363C121.621 140.363 121.16 140.773 121.16 141.391V144H120.48ZM123.887 138.977C123.629 138.977 123.418 138.766 123.418 138.508C123.418 138.25 123.629 138.039 123.887 138.039C124.145 138.039 124.355 138.25 124.355 138.508C124.355 138.766 124.145 138.977 123.887 138.977ZM123.543 144V139.789H124.223V144H123.543ZM126.66 144.074C125.859 144.074 125.254 143.59 125.254 142.824V142.816C125.254 142.066 125.809 141.633 126.789 141.574L127.996 141.5V141.117C127.996 140.598 127.68 140.316 127.051 140.316C126.547 140.316 126.215 140.504 126.105 140.832L126.102 140.844H125.422L125.426 140.82C125.535 140.16 126.176 139.715 127.074 139.715C128.102 139.715 128.676 140.242 128.676 141.117V144H127.996V143.379H127.934C127.668 143.828 127.227 144.074 126.66 144.074ZM125.949 142.809C125.949 143.234 126.312 143.484 126.801 143.484C127.492 143.484 127.996 143.031 127.996 142.43V142.047L126.871 142.117C126.23 142.156 125.949 142.383 125.949 142.801V142.809ZM131.414 144.031C130.547 144.031 130.184 143.711 130.184 142.906V140.352H129.52V139.789H130.184V138.699H130.887V139.789H131.809V140.352H130.887V142.734C130.887 143.23 131.059 143.43 131.496 143.43C131.617 143.43 131.684 143.426 131.809 143.414V143.992C131.676 144.016 131.547 144.031 131.414 144.031ZM133.184 138.977C132.926 138.977 132.715 138.766 132.715 138.508C132.715 138.25 132.926 138.039 133.184 138.039C133.441 138.039 133.652 138.25 133.652 138.508C133.652 138.766 133.441 138.977 133.184 138.977ZM132.84 144V139.789H133.52V144H132.84ZM136.531 144.074C135.332 144.074 134.59 143.246 134.59 141.898V141.891C134.59 140.539 135.332 139.715 136.531 139.715C137.73 139.715 138.473 140.539 138.473 141.891V141.898C138.473 143.246 137.73 144.074 136.531 144.074ZM136.531 143.473C137.328 143.473 137.777 142.891 137.777 141.898V141.891C137.777 140.895 137.328 140.316 136.531 140.316C135.734 140.316 135.285 140.895 135.285 141.891V141.898C135.285 142.891 135.734 143.473 136.531 143.473ZM139.527 144V139.789H140.207V140.422H140.27C140.48 139.977 140.875 139.715 141.496 139.715C142.441 139.715 142.969 140.273 142.969 141.273V144H142.289V141.438C142.289 140.68 141.977 140.316 141.305 140.316C140.633 140.316 140.207 140.77 140.207 141.508V144H139.527Z" fill="#CECECE"/>
<rect y="106" width="71" height="24" rx="8" fill="#622CEA" fill-opacity="0.2"/>
<path d="M16.1494 119.921L18.2441 113.891H19.2646L16.6328 121H15.9053L16.1494 119.921ZM14.1914 113.891L16.2666 119.921L16.5254 121H15.7979L13.1709 113.891H14.1914ZM22.9756 120.097V117.377C22.9756 117.169 22.9333 116.988 22.8486 116.835C22.7673 116.679 22.6436 116.558 22.4775 116.474C22.3115 116.389 22.1064 116.347 21.8623 116.347C21.6344 116.347 21.4342 116.386 21.2617 116.464C21.0924 116.542 20.959 116.645 20.8613 116.771C20.7669 116.898 20.7197 117.035 20.7197 117.182H19.8164C19.8164 116.993 19.8652 116.806 19.9629 116.62C20.0605 116.435 20.2005 116.267 20.3828 116.117C20.5684 115.964 20.7897 115.844 21.0469 115.756C21.3073 115.665 21.597 115.619 21.916 115.619C22.3001 115.619 22.6387 115.684 22.9316 115.814C23.2279 115.945 23.459 116.142 23.625 116.405C23.7943 116.666 23.8789 116.993 23.8789 117.387V119.848C23.8789 120.023 23.8936 120.211 23.9229 120.409C23.9554 120.608 24.0026 120.779 24.0645 120.922V121H23.1221C23.0765 120.896 23.0407 120.757 23.0146 120.585C22.9886 120.409 22.9756 120.246 22.9756 120.097ZM23.1318 117.797L23.1416 118.432H22.2285C21.9714 118.432 21.7419 118.453 21.54 118.495C21.3382 118.534 21.1689 118.594 21.0322 118.676C20.8955 118.757 20.7913 118.86 20.7197 118.983C20.6481 119.104 20.6123 119.245 20.6123 119.408C20.6123 119.574 20.6497 119.726 20.7246 119.862C20.7995 119.999 20.9118 120.108 21.0615 120.189C21.2145 120.268 21.4017 120.307 21.623 120.307C21.8997 120.307 22.1439 120.248 22.3555 120.131C22.5671 120.014 22.7347 119.87 22.8584 119.701C22.9854 119.532 23.0537 119.368 23.0635 119.208L23.4492 119.643C23.4264 119.779 23.3646 119.931 23.2637 120.097C23.1628 120.263 23.0277 120.422 22.8584 120.575C22.6924 120.725 22.4938 120.85 22.2627 120.951C22.0348 121.049 21.7777 121.098 21.4912 121.098C21.1331 121.098 20.819 121.028 20.5488 120.888C20.2819 120.748 20.0736 120.561 19.9238 120.326C19.7773 120.089 19.7041 119.823 19.7041 119.53C19.7041 119.247 19.7594 118.998 19.8701 118.783C19.9808 118.565 20.1403 118.384 20.3486 118.241C20.557 118.095 20.8076 117.984 21.1006 117.909C21.3936 117.834 21.7207 117.797 22.082 117.797H23.1318ZM26.2031 116.547V121H25.2998V115.717H26.1787L26.2031 116.547ZM27.8535 115.688L27.8486 116.527C27.7738 116.511 27.7021 116.501 27.6338 116.498C27.5687 116.492 27.4938 116.488 27.4092 116.488C27.2008 116.488 27.0169 116.521 26.8574 116.586C26.6979 116.651 26.5628 116.742 26.4521 116.859C26.3415 116.977 26.2536 117.117 26.1885 117.279C26.1266 117.439 26.0859 117.615 26.0664 117.807L25.8125 117.953C25.8125 117.634 25.8434 117.335 25.9053 117.055C25.9704 116.775 26.0697 116.527 26.2031 116.312C26.3366 116.094 26.5059 115.925 26.7109 115.805C26.9193 115.681 27.1667 115.619 27.4531 115.619C27.5182 115.619 27.5931 115.627 27.6777 115.644C27.7624 115.657 27.821 115.671 27.8535 115.688ZM29.6699 115.717V121H28.7617V115.717H29.6699ZM28.6934 114.315C28.6934 114.169 28.7373 114.045 28.8252 113.944C28.9163 113.843 29.0498 113.793 29.2256 113.793C29.3981 113.793 29.5299 113.843 29.6211 113.944C29.7155 114.045 29.7627 114.169 29.7627 114.315C29.7627 114.455 29.7155 114.576 29.6211 114.677C29.5299 114.774 29.3981 114.823 29.2256 114.823C29.0498 114.823 28.9163 114.774 28.8252 114.677C28.7373 114.576 28.6934 114.455 28.6934 114.315ZM34.2354 120.097V117.377C34.2354 117.169 34.193 116.988 34.1084 116.835C34.027 116.679 33.9033 116.558 33.7373 116.474C33.5713 116.389 33.3662 116.347 33.1221 116.347C32.8942 116.347 32.694 116.386 32.5215 116.464C32.3522 116.542 32.2188 116.645 32.1211 116.771C32.0267 116.898 31.9795 117.035 31.9795 117.182H31.0762C31.0762 116.993 31.125 116.806 31.2227 116.62C31.3203 116.435 31.4603 116.267 31.6426 116.117C31.8281 115.964 32.0495 115.844 32.3066 115.756C32.5671 115.665 32.8568 115.619 33.1758 115.619C33.5599 115.619 33.8984 115.684 34.1914 115.814C34.4876 115.945 34.7188 116.142 34.8848 116.405C35.054 116.666 35.1387 116.993 35.1387 117.387V119.848C35.1387 120.023 35.1533 120.211 35.1826 120.409C35.2152 120.608 35.2624 120.779 35.3242 120.922V121H34.3818C34.3363 120.896 34.3005 120.757 34.2744 120.585C34.2484 120.409 34.2354 120.246 34.2354 120.097ZM34.3916 117.797L34.4014 118.432H33.4883C33.2311 118.432 33.0016 118.453 32.7998 118.495C32.598 118.534 32.4287 118.594 32.292 118.676C32.1553 118.757 32.0511 118.86 31.9795 118.983C31.9079 119.104 31.8721 119.245 31.8721 119.408C31.8721 119.574 31.9095 119.726 31.9844 119.862C32.0592 119.999 32.1715 120.108 32.3213 120.189C32.4743 120.268 32.6615 120.307 32.8828 120.307C33.1595 120.307 33.4036 120.248 33.6152 120.131C33.8268 120.014 33.9945 119.87 34.1182 119.701C34.2451 119.532 34.3135 119.368 34.3232 119.208L34.709 119.643C34.6862 119.779 34.6243 119.931 34.5234 120.097C34.4225 120.263 34.2874 120.422 34.1182 120.575C33.9521 120.725 33.7536 120.85 33.5225 120.951C33.2946 121.049 33.0374 121.098 32.751 121.098C32.3929 121.098 32.0788 121.028 31.8086 120.888C31.5417 120.748 31.3333 120.561 31.1836 120.326C31.0371 120.089 30.9639 119.823 30.9639 119.53C30.9639 119.247 31.0192 118.998 31.1299 118.783C31.2406 118.565 31.4001 118.384 31.6084 118.241C31.8167 118.095 32.0674 117.984 32.3604 117.909C32.6533 117.834 32.9805 117.797 33.3418 117.797H34.3916ZM38.7715 115.717V116.41H35.915V115.717H38.7715ZM36.8818 114.433H37.7852V119.691C37.7852 119.87 37.8128 120.006 37.8682 120.097C37.9235 120.188 37.9951 120.248 38.083 120.277C38.1709 120.307 38.2653 120.321 38.3662 120.321C38.4411 120.321 38.5192 120.315 38.6006 120.302C38.6852 120.285 38.7487 120.272 38.791 120.263L38.7959 121C38.7243 121.023 38.6299 121.044 38.5127 121.063C38.3988 121.086 38.2604 121.098 38.0977 121.098C37.8763 121.098 37.6729 121.054 37.4873 120.966C37.3018 120.878 37.1536 120.731 37.043 120.526C36.9355 120.318 36.8818 120.038 36.8818 119.687V114.433ZM40.8125 115.717V121H39.9043V115.717H40.8125ZM39.8359 114.315C39.8359 114.169 39.8799 114.045 39.9678 113.944C40.0589 113.843 40.1924 113.793 40.3682 113.793C40.5407 113.793 40.6725 113.843 40.7637 113.944C40.8581 114.045 40.9053 114.169 40.9053 114.315C40.9053 114.455 40.8581 114.576 40.7637 114.677C40.6725 114.774 40.5407 114.823 40.3682 114.823C40.1924 114.823 40.0589 114.774 39.9678 114.677C39.8799 114.576 39.8359 114.455 39.8359 114.315ZM42.0234 118.417V118.305C42.0234 117.924 42.0788 117.571 42.1895 117.245C42.3001 116.916 42.4596 116.632 42.668 116.391C42.8763 116.146 43.1286 115.958 43.4248 115.824C43.721 115.688 44.0531 115.619 44.4209 115.619C44.792 115.619 45.1257 115.688 45.4219 115.824C45.7214 115.958 45.9753 116.146 46.1836 116.391C46.3952 116.632 46.5563 116.916 46.667 117.245C46.7777 117.571 46.833 117.924 46.833 118.305V118.417C46.833 118.798 46.7777 119.151 46.667 119.477C46.5563 119.802 46.3952 120.087 46.1836 120.331C45.9753 120.572 45.723 120.761 45.4268 120.897C45.1338 121.031 44.8018 121.098 44.4307 121.098C44.0596 121.098 43.7259 121.031 43.4297 120.897C43.1335 120.761 42.8796 120.572 42.668 120.331C42.4596 120.087 42.3001 119.802 42.1895 119.477C42.0788 119.151 42.0234 118.798 42.0234 118.417ZM42.9268 118.305V118.417C42.9268 118.681 42.9577 118.93 43.0195 119.164C43.0814 119.395 43.1742 119.6 43.2979 119.779C43.4248 119.958 43.5827 120.1 43.7715 120.204C43.9603 120.305 44.18 120.355 44.4307 120.355C44.6781 120.355 44.8945 120.305 45.0801 120.204C45.2689 120.1 45.4251 119.958 45.5488 119.779C45.6725 119.6 45.7653 119.395 45.8271 119.164C45.8923 118.93 45.9248 118.681 45.9248 118.417V118.305C45.9248 118.044 45.8923 117.799 45.8271 117.567C45.7653 117.333 45.6709 117.126 45.5439 116.947C45.4202 116.765 45.264 116.622 45.0752 116.518C44.8896 116.413 44.6715 116.361 44.4209 116.361C44.1735 116.361 43.9554 116.413 43.7666 116.518C43.5811 116.622 43.4248 116.765 43.2979 116.947C43.1742 117.126 43.0814 117.333 43.0195 117.567C42.9577 117.799 42.9268 118.044 42.9268 118.305ZM48.8691 116.845V121H47.9658V115.717H48.8203L48.8691 116.845ZM48.6543 118.158L48.2783 118.144C48.2816 117.782 48.3353 117.449 48.4395 117.143C48.5436 116.833 48.6901 116.565 48.8789 116.337C49.0677 116.109 49.2923 115.933 49.5527 115.81C49.8164 115.683 50.1077 115.619 50.4268 115.619C50.6872 115.619 50.9215 115.655 51.1299 115.727C51.3382 115.795 51.5156 115.906 51.6621 116.059C51.8118 116.212 51.9258 116.41 52.0039 116.654C52.082 116.895 52.1211 117.19 52.1211 117.538V121H51.2129V117.528C51.2129 117.252 51.1722 117.03 51.0908 116.864C51.0094 116.695 50.8906 116.573 50.7344 116.498C50.5781 116.42 50.3861 116.381 50.1582 116.381C49.9336 116.381 49.7285 116.428 49.543 116.522C49.3607 116.617 49.2028 116.747 49.0693 116.913C48.9391 117.079 48.8366 117.27 48.7617 117.484C48.6901 117.696 48.6543 117.921 48.6543 118.158ZM56.5693 119.599C56.5693 119.468 56.54 119.348 56.4814 119.237C56.4261 119.123 56.3105 119.021 56.1348 118.93C55.9622 118.835 55.7018 118.754 55.3535 118.686C55.0605 118.624 54.7952 118.55 54.5576 118.466C54.3232 118.381 54.123 118.279 53.957 118.158C53.7943 118.038 53.6689 117.896 53.5811 117.733C53.4932 117.571 53.4492 117.38 53.4492 117.162C53.4492 116.954 53.4948 116.757 53.5859 116.571C53.6803 116.386 53.8122 116.221 53.9814 116.078C54.154 115.935 54.3607 115.823 54.6016 115.741C54.8424 115.66 55.111 115.619 55.4072 115.619C55.8304 115.619 56.1917 115.694 56.4912 115.844C56.7907 115.993 57.0202 116.194 57.1797 116.444C57.3392 116.692 57.4189 116.967 57.4189 117.27H56.5156C56.5156 117.123 56.4717 116.981 56.3838 116.845C56.2992 116.705 56.1738 116.589 56.0078 116.498C55.8451 116.407 55.6449 116.361 55.4072 116.361C55.1566 116.361 54.9531 116.4 54.7969 116.479C54.6439 116.553 54.5316 116.649 54.46 116.767C54.3916 116.884 54.3574 117.007 54.3574 117.138C54.3574 117.235 54.3737 117.323 54.4062 117.401C54.4421 117.476 54.5039 117.546 54.5918 117.611C54.6797 117.673 54.8034 117.732 54.9629 117.787C55.1224 117.842 55.3258 117.898 55.5732 117.953C56.0062 118.051 56.3626 118.168 56.6426 118.305C56.9225 118.441 57.1309 118.609 57.2676 118.808C57.4043 119.006 57.4727 119.247 57.4727 119.53C57.4727 119.761 57.4238 119.973 57.3262 120.165C57.2318 120.357 57.0934 120.523 56.9111 120.663C56.7321 120.8 56.5173 120.907 56.2666 120.985C56.0192 121.06 55.7409 121.098 55.4316 121.098C54.9661 121.098 54.5723 121.015 54.25 120.849C53.9277 120.683 53.6836 120.468 53.5176 120.204C53.3516 119.94 53.2686 119.662 53.2686 119.369H54.1768C54.1898 119.617 54.2614 119.813 54.3916 119.96C54.5218 120.103 54.6813 120.206 54.8701 120.268C55.0589 120.326 55.2461 120.355 55.4316 120.355C55.679 120.355 55.8857 120.323 56.0518 120.258C56.221 120.193 56.3496 120.103 56.4375 119.989C56.5254 119.875 56.5693 119.745 56.5693 119.599Z" fill="#622CEA"/>
<rect x="257" y="126" width="61" height="24" rx="8" fill="#622CEA" fill-opacity="0.2"/>
<path d="M276.499 137.221V137.67C276.499 138.204 276.432 138.682 276.299 139.105C276.165 139.529 275.973 139.888 275.723 140.185C275.472 140.481 275.171 140.707 274.819 140.863C274.471 141.02 274.08 141.098 273.647 141.098C273.228 141.098 272.842 141.02 272.49 140.863C272.142 140.707 271.839 140.481 271.582 140.185C271.328 139.888 271.131 139.529 270.991 139.105C270.851 138.682 270.781 138.204 270.781 137.67V137.221C270.781 136.687 270.85 136.21 270.986 135.79C271.126 135.367 271.323 135.007 271.577 134.711C271.831 134.411 272.132 134.184 272.48 134.027C272.832 133.871 273.218 133.793 273.638 133.793C274.071 133.793 274.461 133.871 274.81 134.027C275.161 134.184 275.462 134.411 275.713 134.711C275.967 135.007 276.16 135.367 276.294 135.79C276.431 136.21 276.499 136.687 276.499 137.221ZM275.566 137.67V137.211C275.566 136.788 275.522 136.413 275.435 136.088C275.35 135.762 275.225 135.489 275.059 135.268C274.893 135.046 274.689 134.879 274.448 134.765C274.211 134.651 273.94 134.594 273.638 134.594C273.345 134.594 273.079 134.651 272.842 134.765C272.607 134.879 272.406 135.046 272.236 135.268C272.07 135.489 271.942 135.762 271.851 136.088C271.759 136.413 271.714 136.788 271.714 137.211V137.67C271.714 138.096 271.759 138.474 271.851 138.803C271.942 139.128 272.072 139.403 272.241 139.628C272.414 139.849 272.617 140.017 272.852 140.131C273.089 140.245 273.354 140.302 273.647 140.302C273.953 140.302 274.225 140.245 274.463 140.131C274.701 140.017 274.901 139.849 275.063 139.628C275.229 139.403 275.355 139.128 275.439 138.803C275.524 138.474 275.566 138.096 275.566 137.67ZM278.677 136.732V143.031H277.769V135.717H278.599L278.677 136.732ZM282.236 138.314V138.417C282.236 138.801 282.191 139.158 282.1 139.486C282.008 139.812 281.875 140.095 281.699 140.336C281.527 140.577 281.313 140.764 281.06 140.897C280.806 141.031 280.514 141.098 280.186 141.098C279.85 141.098 279.554 141.042 279.297 140.932C279.04 140.821 278.822 140.66 278.643 140.448C278.464 140.237 278.32 139.983 278.213 139.687C278.109 139.39 278.037 139.057 277.998 138.686V138.139C278.037 137.748 278.11 137.398 278.218 137.089C278.325 136.78 278.467 136.516 278.643 136.298C278.822 136.076 279.038 135.909 279.292 135.795C279.546 135.678 279.839 135.619 280.171 135.619C280.503 135.619 280.798 135.684 281.055 135.814C281.312 135.941 281.528 136.124 281.704 136.361C281.88 136.599 282.012 136.884 282.1 137.216C282.191 137.545 282.236 137.911 282.236 138.314ZM281.328 138.417V138.314C281.328 138.051 281.3 137.803 281.245 137.572C281.19 137.338 281.104 137.133 280.986 136.957C280.872 136.778 280.726 136.638 280.547 136.537C280.368 136.433 280.155 136.381 279.907 136.381C279.679 136.381 279.481 136.42 279.312 136.498C279.146 136.576 279.004 136.682 278.887 136.815C278.77 136.946 278.674 137.095 278.599 137.265C278.527 137.431 278.473 137.603 278.438 137.782V139.047C278.503 139.275 278.594 139.49 278.711 139.691C278.828 139.89 278.984 140.051 279.18 140.175C279.375 140.295 279.621 140.355 279.917 140.355C280.161 140.355 280.371 140.305 280.547 140.204C280.726 140.1 280.872 139.958 280.986 139.779C281.104 139.6 281.19 139.395 281.245 139.164C281.3 138.93 281.328 138.681 281.328 138.417ZM285.601 135.717V136.41H282.744V135.717H285.601ZM283.711 134.433H284.614V139.691C284.614 139.87 284.642 140.006 284.697 140.097C284.753 140.188 284.824 140.248 284.912 140.277C285 140.307 285.094 140.321 285.195 140.321C285.27 140.321 285.348 140.315 285.43 140.302C285.514 140.285 285.578 140.272 285.62 140.263L285.625 141C285.553 141.023 285.459 141.044 285.342 141.063C285.228 141.086 285.09 141.098 284.927 141.098C284.705 141.098 284.502 141.054 284.316 140.966C284.131 140.878 283.983 140.731 283.872 140.526C283.765 140.318 283.711 140.038 283.711 139.687V134.433ZM287.642 135.717V141H286.733V135.717H287.642ZM286.665 134.315C286.665 134.169 286.709 134.045 286.797 133.944C286.888 133.843 287.021 133.793 287.197 133.793C287.37 133.793 287.502 133.843 287.593 133.944C287.687 134.045 287.734 134.169 287.734 134.315C287.734 134.455 287.687 134.576 287.593 134.677C287.502 134.774 287.37 134.823 287.197 134.823C287.021 134.823 286.888 134.774 286.797 134.677C286.709 134.576 286.665 134.455 286.665 134.315ZM288.853 138.417V138.305C288.853 137.924 288.908 137.571 289.019 137.245C289.129 136.916 289.289 136.632 289.497 136.391C289.705 136.146 289.958 135.958 290.254 135.824C290.55 135.688 290.882 135.619 291.25 135.619C291.621 135.619 291.955 135.688 292.251 135.824C292.55 135.958 292.804 136.146 293.013 136.391C293.224 136.632 293.385 136.916 293.496 137.245C293.607 137.571 293.662 137.924 293.662 138.305V138.417C293.662 138.798 293.607 139.151 293.496 139.477C293.385 139.802 293.224 140.087 293.013 140.331C292.804 140.572 292.552 140.761 292.256 140.897C291.963 141.031 291.631 141.098 291.26 141.098C290.889 141.098 290.555 141.031 290.259 140.897C289.963 140.761 289.709 140.572 289.497 140.331C289.289 140.087 289.129 139.802 289.019 139.477C288.908 139.151 288.853 138.798 288.853 138.417ZM289.756 138.305V138.417C289.756 138.681 289.787 138.93 289.849 139.164C289.91 139.395 290.003 139.6 290.127 139.779C290.254 139.958 290.412 140.1 290.601 140.204C290.789 140.305 291.009 140.355 291.26 140.355C291.507 140.355 291.724 140.305 291.909 140.204C292.098 140.1 292.254 139.958 292.378 139.779C292.502 139.6 292.594 139.395 292.656 139.164C292.721 138.93 292.754 138.681 292.754 138.417V138.305C292.754 138.044 292.721 137.799 292.656 137.567C292.594 137.333 292.5 137.126 292.373 136.947C292.249 136.765 292.093 136.622 291.904 136.518C291.719 136.413 291.501 136.361 291.25 136.361C291.003 136.361 290.785 136.413 290.596 136.518C290.41 136.622 290.254 136.765 290.127 136.947C290.003 137.126 289.91 137.333 289.849 137.567C289.787 137.799 289.756 138.044 289.756 138.305ZM295.698 136.845V141H294.795V135.717H295.649L295.698 136.845ZM295.483 138.158L295.107 138.144C295.111 137.782 295.164 137.449 295.269 137.143C295.373 136.833 295.519 136.565 295.708 136.337C295.897 136.109 296.121 135.933 296.382 135.81C296.646 135.683 296.937 135.619 297.256 135.619C297.516 135.619 297.751 135.655 297.959 135.727C298.167 135.795 298.345 135.906 298.491 136.059C298.641 136.212 298.755 136.41 298.833 136.654C298.911 136.895 298.95 137.19 298.95 137.538V141H298.042V137.528C298.042 137.252 298.001 137.03 297.92 136.864C297.839 136.695 297.72 136.573 297.563 136.498C297.407 136.42 297.215 136.381 296.987 136.381C296.763 136.381 296.558 136.428 296.372 136.522C296.19 136.617 296.032 136.747 295.898 136.913C295.768 137.079 295.666 137.27 295.591 137.484C295.519 137.696 295.483 137.921 295.483 138.158ZM303.398 139.599C303.398 139.468 303.369 139.348 303.311 139.237C303.255 139.123 303.14 139.021 302.964 138.93C302.791 138.835 302.531 138.754 302.183 138.686C301.89 138.624 301.624 138.55 301.387 138.466C301.152 138.381 300.952 138.279 300.786 138.158C300.623 138.038 300.498 137.896 300.41 137.733C300.322 137.571 300.278 137.38 300.278 137.162C300.278 136.954 300.324 136.757 300.415 136.571C300.509 136.386 300.641 136.221 300.811 136.078C300.983 135.935 301.19 135.823 301.431 135.741C301.672 135.66 301.94 135.619 302.236 135.619C302.66 135.619 303.021 135.694 303.32 135.844C303.62 135.993 303.849 136.194 304.009 136.444C304.168 136.692 304.248 136.967 304.248 137.27H303.345C303.345 137.123 303.301 136.981 303.213 136.845C303.128 136.705 303.003 136.589 302.837 136.498C302.674 136.407 302.474 136.361 302.236 136.361C301.986 136.361 301.782 136.4 301.626 136.479C301.473 136.553 301.361 136.649 301.289 136.767C301.221 136.884 301.187 137.007 301.187 137.138C301.187 137.235 301.203 137.323 301.235 137.401C301.271 137.476 301.333 137.546 301.421 137.611C301.509 137.673 301.632 137.732 301.792 137.787C301.951 137.842 302.155 137.898 302.402 137.953C302.835 138.051 303.192 138.168 303.472 138.305C303.752 138.441 303.96 138.609 304.097 138.808C304.233 139.006 304.302 139.247 304.302 139.53C304.302 139.761 304.253 139.973 304.155 140.165C304.061 140.357 303.923 140.523 303.74 140.663C303.561 140.8 303.346 140.907 303.096 140.985C302.848 141.06 302.57 141.098 302.261 141.098C301.795 141.098 301.401 141.015 301.079 140.849C300.757 140.683 300.513 140.468 300.347 140.204C300.181 139.94 300.098 139.662 300.098 139.369H301.006C301.019 139.617 301.09 139.813 301.221 139.96C301.351 140.103 301.51 140.206 301.699 140.268C301.888 140.326 302.075 140.355 302.261 140.355C302.508 140.355 302.715 140.323 302.881 140.258C303.05 140.193 303.179 140.103 303.267 139.989C303.354 139.875 303.398 139.745 303.398 139.599Z" fill="#622CEA"/>
<rect x="259" y="66" width="88" height="24" rx="8" fill="#622CEA" fill-opacity="0.2"/>
<path d="M275.134 79.9209L277.229 73.8906H278.249L275.617 81H274.89L275.134 79.9209ZM273.176 73.8906L275.251 79.9209L275.51 81H274.782L272.155 73.8906H273.176ZM281.96 80.0967V77.377C281.96 77.1686 281.918 76.988 281.833 76.835C281.752 76.6787 281.628 76.5583 281.462 76.4736C281.296 76.389 281.091 76.3467 280.847 76.3467C280.619 76.3467 280.419 76.3857 280.246 76.4639C280.077 76.542 279.943 76.6445 279.846 76.7715C279.751 76.8984 279.704 77.0352 279.704 77.1816H278.801C278.801 76.9928 278.85 76.8057 278.947 76.6201C279.045 76.4346 279.185 76.2669 279.367 76.1172C279.553 75.9642 279.774 75.8438 280.031 75.7559C280.292 75.6647 280.581 75.6191 280.9 75.6191C281.285 75.6191 281.623 75.6842 281.916 75.8145C282.212 75.9447 282.443 76.1416 282.609 76.4053C282.779 76.6657 282.863 76.9928 282.863 77.3867V79.8477C282.863 80.0234 282.878 80.2106 282.907 80.4092C282.94 80.6077 282.987 80.7786 283.049 80.9219V81H282.106C282.061 80.8958 282.025 80.7575 281.999 80.585C281.973 80.4092 281.96 80.2464 281.96 80.0967ZM282.116 77.7969L282.126 78.4316H281.213C280.956 78.4316 280.726 78.4528 280.524 78.4951C280.323 78.5342 280.153 78.5944 280.017 78.6758C279.88 78.7572 279.776 78.8597 279.704 78.9834C279.632 79.1038 279.597 79.2454 279.597 79.4082C279.597 79.5742 279.634 79.7256 279.709 79.8623C279.784 79.999 279.896 80.1081 280.046 80.1895C280.199 80.2676 280.386 80.3066 280.607 80.3066C280.884 80.3066 281.128 80.248 281.34 80.1309C281.551 80.0137 281.719 79.8704 281.843 79.7012C281.97 79.5319 282.038 79.3675 282.048 79.208L282.434 79.6426C282.411 79.7793 282.349 79.9307 282.248 80.0967C282.147 80.2627 282.012 80.4222 281.843 80.5752C281.677 80.7249 281.478 80.8503 281.247 80.9512C281.019 81.0488 280.762 81.0977 280.476 81.0977C280.118 81.0977 279.803 81.0277 279.533 80.8877C279.266 80.7477 279.058 80.5605 278.908 80.3262C278.762 80.0885 278.688 79.8232 278.688 79.5303C278.688 79.2471 278.744 78.998 278.854 78.7832C278.965 78.5651 279.125 78.3844 279.333 78.2412C279.541 78.0947 279.792 77.984 280.085 77.9092C280.378 77.8343 280.705 77.7969 281.066 77.7969H282.116ZM285.188 76.5469V81H284.284V75.7168H285.163L285.188 76.5469ZM286.838 75.6875L286.833 76.5273C286.758 76.5111 286.687 76.5013 286.618 76.498C286.553 76.4915 286.478 76.4883 286.394 76.4883C286.185 76.4883 286.001 76.5208 285.842 76.5859C285.682 76.651 285.547 76.7422 285.437 76.8594C285.326 76.9766 285.238 77.1165 285.173 77.2793C285.111 77.4388 285.07 77.6146 285.051 77.8066L284.797 77.9531C284.797 77.6341 284.828 77.3346 284.89 77.0547C284.955 76.7747 285.054 76.5273 285.188 76.3125C285.321 76.0944 285.49 75.9251 285.695 75.8047C285.904 75.681 286.151 75.6191 286.438 75.6191C286.503 75.6191 286.577 75.6273 286.662 75.6436C286.747 75.6566 286.805 75.6712 286.838 75.6875ZM288.654 75.7168V81H287.746V75.7168H288.654ZM287.678 74.3154C287.678 74.1689 287.722 74.0452 287.81 73.9443C287.901 73.8434 288.034 73.793 288.21 73.793C288.382 73.793 288.514 73.8434 288.605 73.9443C288.7 74.0452 288.747 74.1689 288.747 74.3154C288.747 74.4554 288.7 74.5758 288.605 74.6768C288.514 74.7744 288.382 74.8232 288.21 74.8232C288.034 74.8232 287.901 74.7744 287.81 74.6768C287.722 74.5758 287.678 74.4554 287.678 74.3154ZM293.22 80.0967V77.377C293.22 77.1686 293.177 76.988 293.093 76.835C293.011 76.6787 292.888 76.5583 292.722 76.4736C292.556 76.389 292.351 76.3467 292.106 76.3467C291.879 76.3467 291.678 76.3857 291.506 76.4639C291.337 76.542 291.203 76.6445 291.105 76.7715C291.011 76.8984 290.964 77.0352 290.964 77.1816H290.061C290.061 76.9928 290.109 76.8057 290.207 76.6201C290.305 76.4346 290.445 76.2669 290.627 76.1172C290.812 75.9642 291.034 75.8438 291.291 75.7559C291.551 75.6647 291.841 75.6191 292.16 75.6191C292.544 75.6191 292.883 75.6842 293.176 75.8145C293.472 75.9447 293.703 76.1416 293.869 76.4053C294.038 76.6657 294.123 76.9928 294.123 77.3867V79.8477C294.123 80.0234 294.138 80.2106 294.167 80.4092C294.2 80.6077 294.247 80.7786 294.309 80.9219V81H293.366C293.321 80.8958 293.285 80.7575 293.259 80.585C293.233 80.4092 293.22 80.2464 293.22 80.0967ZM293.376 77.7969L293.386 78.4316H292.473C292.215 78.4316 291.986 78.4528 291.784 78.4951C291.582 78.5342 291.413 78.5944 291.276 78.6758C291.14 78.7572 291.035 78.8597 290.964 78.9834C290.892 79.1038 290.856 79.2454 290.856 79.4082C290.856 79.5742 290.894 79.7256 290.969 79.8623C291.044 79.999 291.156 80.1081 291.306 80.1895C291.459 80.2676 291.646 80.3066 291.867 80.3066C292.144 80.3066 292.388 80.248 292.6 80.1309C292.811 80.0137 292.979 79.8704 293.103 79.7012C293.229 79.5319 293.298 79.3675 293.308 79.208L293.693 79.6426C293.671 79.7793 293.609 79.9307 293.508 80.0967C293.407 80.2627 293.272 80.4222 293.103 80.5752C292.937 80.7249 292.738 80.8503 292.507 80.9512C292.279 81.0488 292.022 81.0977 291.735 81.0977C291.377 81.0977 291.063 81.0277 290.793 80.8877C290.526 80.7477 290.318 80.5605 290.168 80.3262C290.021 80.0885 289.948 79.8232 289.948 79.5303C289.948 79.2471 290.004 78.998 290.114 78.7832C290.225 78.5651 290.384 78.3844 290.593 78.2412C290.801 78.0947 291.052 77.984 291.345 77.9092C291.638 77.8343 291.965 77.7969 292.326 77.7969H293.376ZM296.447 76.8447V81H295.544V75.7168H296.398L296.447 76.8447ZM296.232 78.1582L295.856 78.1436C295.86 77.7822 295.913 77.4486 296.018 77.1426C296.122 76.8333 296.268 76.5648 296.457 76.3369C296.646 76.109 296.87 75.9333 297.131 75.8096C297.395 75.6826 297.686 75.6191 298.005 75.6191C298.265 75.6191 298.5 75.6549 298.708 75.7266C298.916 75.7949 299.094 75.9056 299.24 76.0586C299.39 76.2116 299.504 76.4102 299.582 76.6543C299.66 76.8952 299.699 77.1898 299.699 77.5381V81H298.791V77.5283C298.791 77.2516 298.75 77.0303 298.669 76.8643C298.588 76.695 298.469 76.5729 298.312 76.498C298.156 76.4199 297.964 76.3809 297.736 76.3809C297.512 76.3809 297.307 76.4281 297.121 76.5225C296.939 76.6169 296.781 76.7471 296.647 76.9131C296.517 77.0791 296.415 77.2695 296.34 77.4844C296.268 77.696 296.232 77.9206 296.232 78.1582ZM303.283 75.7168V76.4102H300.427V75.7168H303.283ZM301.394 74.4326H302.297V79.6914C302.297 79.8704 302.325 80.0055 302.38 80.0967C302.435 80.1878 302.507 80.248 302.595 80.2773C302.683 80.3066 302.777 80.3213 302.878 80.3213C302.953 80.3213 303.031 80.3148 303.112 80.3018C303.197 80.2855 303.26 80.2725 303.303 80.2627L303.308 81C303.236 81.0228 303.142 81.0439 303.024 81.0635C302.91 81.0863 302.772 81.0977 302.609 81.0977C302.388 81.0977 302.185 81.0537 301.999 80.9658C301.813 80.8779 301.665 80.7314 301.555 80.5264C301.447 80.318 301.394 80.0381 301.394 79.6865V74.4326ZM307.971 73.8906V81H307.028V73.8906H307.971ZM310.446 76.7666V81H309.538V75.7168H310.397L310.446 76.7666ZM310.261 78.1582L309.841 78.1436C309.844 77.7822 309.891 77.4486 309.982 77.1426C310.074 76.8333 310.209 76.5648 310.388 76.3369C310.567 76.109 310.79 75.9333 311.057 75.8096C311.324 75.6826 311.633 75.6191 311.984 75.6191C312.232 75.6191 312.46 75.6549 312.668 75.7266C312.876 75.7949 313.057 75.904 313.21 76.0537C313.363 76.2035 313.482 76.3955 313.566 76.6299C313.651 76.8643 313.693 77.1475 313.693 77.4795V81H312.79V77.5234C312.79 77.2467 312.743 77.0254 312.648 76.8594C312.557 76.6934 312.427 76.5729 312.258 76.498C312.089 76.4199 311.89 76.3809 311.662 76.3809C311.395 76.3809 311.172 76.4281 310.993 76.5225C310.814 76.6169 310.671 76.7471 310.563 76.9131C310.456 77.0791 310.378 77.2695 310.329 77.4844C310.284 77.696 310.261 77.9206 310.261 78.1582ZM313.684 77.6602L313.078 77.8457C313.081 77.556 313.129 77.2777 313.22 77.0107C313.314 76.7438 313.449 76.5062 313.625 76.2979C313.804 76.0895 314.024 75.9251 314.284 75.8047C314.545 75.681 314.842 75.6191 315.178 75.6191C315.461 75.6191 315.712 75.6566 315.93 75.7314C316.151 75.8063 316.337 75.9219 316.486 76.0781C316.639 76.2311 316.755 76.4281 316.833 76.6689C316.911 76.9098 316.95 77.1963 316.95 77.5283V81H316.042V77.5186C316.042 77.2223 315.995 76.9928 315.9 76.8301C315.809 76.6641 315.679 76.5485 315.51 76.4834C315.344 76.415 315.145 76.3809 314.914 76.3809C314.715 76.3809 314.54 76.415 314.387 76.4834C314.234 76.5518 314.105 76.6462 314.001 76.7666C313.897 76.8838 313.817 77.0189 313.762 77.1719C313.71 77.3249 313.684 77.4876 313.684 77.6602ZM321.433 80.0967V77.377C321.433 77.1686 321.39 76.988 321.306 76.835C321.224 76.6787 321.101 76.5583 320.935 76.4736C320.769 76.389 320.563 76.3467 320.319 76.3467C320.091 76.3467 319.891 76.3857 319.719 76.4639C319.549 76.542 319.416 76.6445 319.318 76.7715C319.224 76.8984 319.177 77.0352 319.177 77.1816H318.273C318.273 76.9928 318.322 76.8057 318.42 76.6201C318.518 76.4346 318.658 76.2669 318.84 76.1172C319.025 75.9642 319.247 75.8438 319.504 75.7559C319.764 75.6647 320.054 75.6191 320.373 75.6191C320.757 75.6191 321.096 75.6842 321.389 75.8145C321.685 75.9447 321.916 76.1416 322.082 76.4053C322.251 76.6657 322.336 76.9928 322.336 77.3867V79.8477C322.336 80.0234 322.351 80.2106 322.38 80.4092C322.412 80.6077 322.46 80.7786 322.521 80.9219V81H321.579C321.534 80.8958 321.498 80.7575 321.472 80.585C321.446 80.4092 321.433 80.2464 321.433 80.0967ZM321.589 77.7969L321.599 78.4316H320.686C320.428 78.4316 320.199 78.4528 319.997 78.4951C319.795 78.5342 319.626 78.5944 319.489 78.6758C319.353 78.7572 319.248 78.8597 319.177 78.9834C319.105 79.1038 319.069 79.2454 319.069 79.4082C319.069 79.5742 319.107 79.7256 319.182 79.8623C319.257 79.999 319.369 80.1081 319.519 80.1895C319.672 80.2676 319.859 80.3066 320.08 80.3066C320.357 80.3066 320.601 80.248 320.812 80.1309C321.024 80.0137 321.192 79.8704 321.315 79.7012C321.442 79.5319 321.511 79.3675 321.521 79.208L321.906 79.6426C321.883 79.7793 321.822 79.9307 321.721 80.0967C321.62 80.2627 321.485 80.4222 321.315 80.5752C321.149 80.7249 320.951 80.8503 320.72 80.9512C320.492 81.0488 320.235 81.0977 319.948 81.0977C319.59 81.0977 319.276 81.0277 319.006 80.8877C318.739 80.7477 318.531 80.5605 318.381 80.3262C318.234 80.0885 318.161 79.8232 318.161 79.5303C318.161 79.2471 318.216 78.998 318.327 78.7832C318.438 78.5651 318.597 78.3844 318.806 78.2412C319.014 78.0947 319.265 77.984 319.558 77.9092C319.851 77.8343 320.178 77.7969 320.539 77.7969H321.589ZM327.18 75.7168H328V80.8877C328 81.3532 327.906 81.7503 327.717 82.0791C327.528 82.4079 327.264 82.6569 326.926 82.8262C326.59 82.9987 326.203 83.085 325.764 83.085C325.581 83.085 325.367 83.0557 325.119 82.9971C324.875 82.9417 324.634 82.8457 324.396 82.709C324.162 82.5755 323.965 82.3949 323.806 82.167L324.279 81.6299C324.501 81.8968 324.732 82.0824 324.973 82.1865C325.217 82.2907 325.458 82.3428 325.695 82.3428C325.982 82.3428 326.229 82.2891 326.438 82.1816C326.646 82.0742 326.807 81.9147 326.921 81.7031C327.038 81.4948 327.097 81.2376 327.097 80.9316V76.8789L327.18 75.7168ZM323.542 78.417V78.3145C323.542 77.9108 323.589 77.5446 323.684 77.2158C323.781 76.8838 323.92 76.599 324.099 76.3613C324.281 76.1237 324.501 75.9414 324.758 75.8145C325.015 75.6842 325.305 75.6191 325.627 75.6191C325.959 75.6191 326.249 75.6777 326.496 75.7949C326.747 75.9089 326.958 76.0765 327.131 76.2979C327.307 76.516 327.445 76.7796 327.546 77.0889C327.647 77.3981 327.717 77.748 327.756 78.1387V78.5879C327.72 78.9753 327.65 79.3236 327.546 79.6328C327.445 79.9421 327.307 80.2057 327.131 80.4238C326.958 80.6419 326.747 80.8096 326.496 80.9268C326.245 81.0407 325.952 81.0977 325.617 81.0977C325.301 81.0977 325.015 81.0309 324.758 80.8975C324.504 80.764 324.286 80.5768 324.104 80.3359C323.921 80.0951 323.781 79.8118 323.684 79.4863C323.589 79.1576 323.542 78.8011 323.542 78.417ZM324.445 78.3145V78.417C324.445 78.6807 324.471 78.9281 324.523 79.1592C324.579 79.3903 324.662 79.5938 324.772 79.7695C324.886 79.9453 325.031 80.0837 325.207 80.1846C325.383 80.2822 325.593 80.3311 325.837 80.3311C326.136 80.3311 326.384 80.2676 326.579 80.1406C326.774 80.0137 326.929 79.846 327.043 79.6377C327.16 79.4294 327.251 79.2031 327.316 78.959V77.7822C327.281 77.6032 327.225 77.4307 327.15 77.2646C327.079 77.0954 326.984 76.9456 326.867 76.8154C326.753 76.682 326.612 76.5762 326.442 76.498C326.273 76.4199 326.075 76.3809 325.847 76.3809C325.599 76.3809 325.386 76.4329 325.207 76.5371C325.031 76.638 324.886 76.778 324.772 76.957C324.662 77.1328 324.579 77.3379 324.523 77.5723C324.471 77.8034 324.445 78.0508 324.445 78.3145ZM331.564 81.0977C331.197 81.0977 330.863 81.0358 330.563 80.9121C330.267 80.7852 330.012 80.6077 329.797 80.3799C329.585 80.152 329.423 79.8818 329.309 79.5693C329.195 79.2568 329.138 78.915 329.138 78.5439V78.3389C329.138 77.9092 329.201 77.5267 329.328 77.1914C329.455 76.8529 329.628 76.5664 329.846 76.332C330.064 76.0977 330.311 75.9202 330.588 75.7998C330.865 75.6794 331.151 75.6191 331.447 75.6191C331.825 75.6191 332.15 75.6842 332.424 75.8145C332.701 75.9447 332.927 76.127 333.103 76.3613C333.278 76.5924 333.409 76.8659 333.493 77.1816C333.578 77.4941 333.62 77.8359 333.62 78.207V78.6123H329.675V77.875H332.717V77.8066C332.704 77.5723 332.655 77.3444 332.57 77.123C332.489 76.9017 332.359 76.7194 332.18 76.5762C332.001 76.4329 331.757 76.3613 331.447 76.3613C331.242 76.3613 331.053 76.4053 330.881 76.4932C330.708 76.5778 330.56 76.7048 330.437 76.874C330.313 77.0433 330.217 77.25 330.148 77.4941C330.08 77.7383 330.046 78.0199 330.046 78.3389V78.5439C330.046 78.7946 330.08 79.0306 330.148 79.252C330.22 79.4701 330.323 79.6621 330.456 79.8281C330.593 79.9941 330.757 80.1243 330.949 80.2188C331.145 80.3132 331.366 80.3604 331.613 80.3604C331.932 80.3604 332.202 80.2952 332.424 80.165C332.645 80.0348 332.839 79.8607 333.005 79.6426L333.552 80.0771C333.438 80.2497 333.293 80.4141 333.117 80.5703C332.941 80.7266 332.725 80.8535 332.468 80.9512C332.214 81.0488 331.913 81.0977 331.564 81.0977Z" fill="#622CEA"/>
<path d="M106.9 86.754C107.317 87.3614 108.147 87.5161 108.754 87.0996C109.361 86.6832 109.516 85.8533 109.1 85.246C108.683 84.6386 107.853 84.4839 107.246 84.9004C106.639 85.3168 106.484 86.1467 106.9 86.754ZM73.1414 110.206L108.141 86.2062L107.859 85.7938L72.8586 109.794L73.1414 110.206Z" fill="#58575A"/>
<path d="M105.8 140.418C105.479 141.081 105.756 141.878 106.418 142.2C107.081 142.521 107.878 142.244 108.2 141.582C108.521 140.919 108.244 140.122 107.582 139.8C106.919 139.479 106.122 139.756 105.8 140.418ZM73.8909 125.225L106.891 141.225L107.109 140.775L74.1091 124.775L73.8909 125.225Z" fill="#58575A"/>
<path d="M213.276 117.386C213.489 116.681 213.091 115.937 212.386 115.724C211.681 115.511 210.937 115.909 210.724 116.614C210.511 117.319 210.909 118.063 211.614 118.276C212.319 118.489 213.063 118.091 213.276 117.386ZM255.072 129.761L212.072 116.761L211.928 117.239L254.928 130.239L255.072 129.761Z" fill="#58575A"/>
<path d="M213.299 154.698C213.132 153.981 212.415 153.535 211.698 153.701C210.981 153.868 210.535 154.585 210.701 155.302C210.868 156.019 211.585 156.465 212.302 156.299C213.019 156.132 213.465 155.415 213.299 154.698ZM254.943 144.756L211.943 154.756L212.057 155.244L255.057 145.244L254.943 144.756Z" fill="#58575A"/>
<path d="M211.193 100.404C210.863 99.7451 210.062 99.4781 209.404 99.8074C208.745 100.137 208.478 100.938 208.807 101.596C209.137 102.255 209.938 102.522 210.596 102.193C211.255 101.863 211.522 101.062 211.193 100.404ZM255.888 77.7764L209.888 100.776L210.112 101.224L256.112 78.2236L255.888 77.7764Z" fill="#58575A"/>
<defs>
<filter id="filter0_d_99_83" x="97" y="0" width="146" height="183" filterUnits="userSpaceOnUse" color-interpolation-filters="sRGB">
<feFlood flood-opacity="0" result="BackgroundImageFix"/>
<feColorMatrix in="SourceAlpha" type="matrix" values="0 0 0 0 0 0 0 0 0 0 0 0 0 0 0 0 0 0 127 0" result="hardAlpha"/>
<feOffset dx="4" dy="4"/>
<feGaussianBlur stdDeviation="4"/>
<feComposite in2="hardAlpha" operator="out"/>
<feColorMatrix type="matrix" values="0 0 0 0 0.570112 0 0 0 0 0.570112 0 0 0 0 0.570112 0 0 0 1 0"/>
<feBlend mode="normal" in2="BackgroundImageFix" result="effect1_dropShadow_99_83"/>
<feBlend mode="normal" in="SourceGraphic" in2="effect1_dropShadow_99_83" result="shape"/>
</filter>
</defs>
</svg>
