<svg width="22" height="22" viewBox="0 0 22 22" fill="none" xmlns="http://www.w3.org/2000/svg">
<path d="M15.125 8.75L9.62187 14L6.875 11.375M4.10938 17.8906C3.24688 17.0281 3.81875 15.2187 3.37812 14.1594C2.9375 13.1 1.25 12.1719 1.25 11C1.25 9.82813 2.91875 8.9375 3.37812 7.84063C3.8375 6.74375 3.24688 4.97188 4.10938 4.10938C4.97188 3.24688 6.78125 3.81875 7.84063 3.37812C8.9 2.9375 9.82813 1.25 11 1.25C12.1719 1.25 13.0625 2.91875 14.1594 3.37812C15.2562 3.8375 17.0281 3.24688 17.8906 4.10938C18.7531 4.97188 18.1813 6.78125 18.6219 7.84063C19.0625 8.9 20.75 9.82813 20.75 11C20.75 12.1719 19.0813 13.0625 18.6219 14.1594C18.1625 15.2562 18.7531 17.0281 17.8906 17.8906C17.0281 18.7531 15.2187 18.1813 14.1594 18.6219C13.1 19.0625 12.1719 20.75 11 20.75C9.82813 20.75 8.9375 19.0813 7.84063 18.6219C6.74375 18.1625 4.97188 18.7531 4.10938 17.8906Z" stroke="#F5F6F8" stroke-width="1.5" stroke-linecap="round" stroke-linejoin="round"/>
</svg>
