<svg width="24" height="24" viewBox="0 0 24 24" fill="none" xmlns="http://www.w3.org/2000/svg">
<path d="M16.5 8C16.5 8.27614 16.7239 8.5 17 8.5C17.2761 8.5 17.5 8.27614 17.5 8H16.5ZM18.5 12C18.5 12.2761 18.7239 12.5 19 12.5C19.2761 12.5 19.5 12.2761 19.5 12H18.5ZM19.5 16C19.5 15.7239 19.2761 15.5 19 15.5C18.7239 15.5 18.5 15.7239 18.5 16H19.5ZM4.5 6C4.5 5.72386 4.27614 5.5 4 5.5C3.72386 5.5 3.5 5.72386 3.5 6H4.5ZM17.5 8V5H16.5V8H17.5ZM17.5 5C17.5 4.17157 16.8284 3.5 16 3.5V4.5C16.2761 4.5 16.5 4.72386 16.5 5H17.5ZM16 3.5H6V4.5H16V3.5ZM6 3.5C4.61929 3.5 3.5 4.61929 3.5 6H4.5C4.5 5.17157 5.17157 4.5 6 4.5V3.5ZM3.5 6C3.5 7.38071 4.61929 8.5 6 8.5V7.5C5.17157 7.5 4.5 6.82843 4.5 6H3.5ZM6 8.5H18V7.5H6V8.5ZM18 8.5C18.2761 8.5 18.5 8.72386 18.5 9H19.5C19.5 8.17157 18.8284 7.5 18 7.5V8.5ZM18.5 9V12H19.5V9H18.5ZM18.5 16V19H19.5V16H18.5ZM18.5 19C18.5 19.2761 18.2761 19.5 18 19.5V20.5C18.8284 20.5 19.5 19.8284 19.5 19H18.5ZM18 19.5H6V20.5H18V19.5ZM6 19.5C5.17157 19.5 4.5 18.8284 4.5 18H3.5C3.5 19.3807 4.61929 20.5 6 20.5V19.5ZM4.5 18V6H3.5V18H4.5Z" fill="#27262A"/>
<path d="M20 12V16H16C14.8954 16 14 15.1046 14 14C14 12.8954 14.8954 12 16 12H20" stroke="#27262A" stroke-linecap="round" stroke-linejoin="round"/>
</svg>
